<svg width="729" height="1024" viewBox="0 0 729 1024" fill="none" xmlns="http://www.w3.org/2000/svg">
<g clip-path="url(#clip0_365_9606)">
<rect width="728.999" height="1024" fill="#EAF3FF"/>
<path d="M728.999 858H0V1024H728.999V858Z" fill="#90BDFF" fill-opacity="0.5"/>
<path d="M516.855 862.591V277.448H728.999V858.412L516.855 862.591Z" fill="#C1DAFF" fill-opacity="0.5"/>
<path d="M0 858.413V716.306H23.1435V555.392H53.0347V638.984H84.8565V718.393H392.465V599.277H435.856V659.879H457.072V733.021H485.035V678.691H516.856V862.592L0 858.413Z" fill="#C1DAFF" fill-opacity="0.5"/>
<path d="M494.357 239V277.449H729.001V239.273L494.357 239Z" fill="#90BDFF" fill-opacity="0.5"/>
<g clip-path="url(#clip1_365_9606)">
<path d="M525.531 900.008H788.248C787.73 891.444 787.164 883.181 786.539 875.357H527.252C526.618 883.169 526.049 891.432 525.531 900.008Z" fill="#81A9AC"/>
<path d="M521.434 999.505H792.352C792.114 991.404 791.858 983.154 791.581 974.854H522.204C521.927 983.154 521.674 991.404 521.434 999.505Z" fill="#81A9AC"/>
<path d="M527.957 866.836H785.828C785.03 857.849 784.144 849.556 783.161 842.185H530.628C529.641 849.544 528.758 857.837 527.957 866.836Z" fill="#81A9AC"/>
<path d="M523.811 933.18H789.984C789.609 924.813 789.201 916.56 788.766 908.529H525.059C524.593 916.545 524.185 924.798 523.811 933.18Z" fill="#81A9AC"/>
<path d="M522.496 966.351H791.295C791.005 958.134 790.685 949.869 790.35 941.701H523.443C523.099 949.854 522.785 958.104 522.496 966.351Z" fill="#81A9AC"/>
<path d="M538.91 808.995C536.154 812.835 533.836 821.533 531.875 833.645H781.907C779.943 821.524 777.625 812.826 774.869 808.995H538.91Z" fill="#81A9AC"/>
<path d="M700.256 773.102H613.528C596.647 777.524 565.208 786.514 547.398 800.47H766.385C748.579 786.526 717.137 777.536 700.256 773.102Z" fill="#81A9AC"/>
<path d="M520.717 1024.91H793.069C792.917 1019.4 792.765 1013.75 792.597 1008.02H521.186C521.024 1013.75 520.857 1019.4 520.717 1024.91Z" fill="#81A9AC"/>
<path d="M774.793 808.876C772.597 805.903 769.729 803.094 766.385 800.482H547.398C544.048 803.106 541.185 805.903 538.989 808.876C538.965 808.912 538.938 808.958 538.91 808.995H774.872C774.848 808.958 774.821 808.912 774.793 808.876Z" fill="#96BCBA"/>
<path d="M530.627 842.167H783.16C782.754 839.172 782.337 836.332 781.911 833.646H531.879C531.434 836.328 531.017 839.168 530.627 842.167Z" fill="#96BCBA"/>
<path d="M527.252 875.336H786.542C786.311 872.438 786.072 869.598 785.827 866.814H527.955C527.71 869.596 527.475 872.436 527.252 875.336Z" fill="#96BCBA"/>
<path d="M525.039 908.508H788.746C788.587 905.641 788.423 902.8 788.252 899.986H525.532C525.366 902.798 525.201 905.639 525.039 908.508Z" fill="#96BCBA"/>
<path d="M523.443 941.677H790.344C790.225 938.836 790.102 935.996 789.976 933.155H523.803C523.681 935.99 523.561 938.83 523.443 941.677Z" fill="#96BCBA"/>
<path d="M522.203 974.848H791.58C791.487 972.008 791.385 969.168 791.276 966.327H522.483C522.392 969.184 522.299 972.024 522.203 974.848Z" fill="#96BCBA"/>
<path d="M521.186 1008.02H792.597C792.518 1005.2 792.436 1002.36 792.35 999.496H521.432C521.349 1002.35 521.267 1005.2 521.186 1008.02Z" fill="#96BCBA"/>
<path d="M564.289 985.077C565.418 961.947 567.127 926.983 568.507 875.214C569.033 855.502 558.487 833.758 558.036 832.845L556.209 833.736C556.319 833.959 566.987 855.952 566.472 875.156C565.093 926.913 563.387 961.859 562.254 984.982C561.252 1005.51 560.668 1017.51 561.085 1024.91H563.156C562.723 1017.85 563.265 1006 564.289 985.077Z" fill="#5D9094"/>
<path d="M657.043 790.771C676.477 790.771 693.181 783.489 700.594 773.05C697.012 772.311 693.805 771.662 691.128 771.13C684.428 777.469 671.677 781.757 657.034 781.757C642.245 781.757 629.378 777.387 622.727 770.947C620.215 771.513 617.096 772.241 613.518 773.114C620.97 783.519 637.647 790.771 657.043 790.771Z" fill="#5D9094"/>
<path d="M629.446 769.49C629.446 769.49 626.934 769.998 622.746 770.947C629.397 777.387 642.264 781.757 657.053 781.757C671.696 781.757 684.441 777.469 691.147 771.13C685.915 770.089 682.702 769.49 682.702 769.49H629.446Z" fill="#FFC6AE"/>
<path d="M566.701 875.819C563.905 872.38 560.969 869.31 558.131 866.336C553.179 861.163 548.504 856.257 544.615 849.677L546.366 848.646C550.137 855.021 554.735 859.836 559.602 864.933C562.471 867.931 565.434 871.035 568.281 874.538L566.701 875.819Z" fill="#5D9094"/>
<path d="M561.995 980.351C552.067 965.134 548.041 948.795 543.778 931.509C542.785 927.485 541.78 923.42 540.689 919.335L542.657 918.812C543.75 922.924 544.755 926.998 545.751 931.037C549.972 948.149 553.974 964.312 563.698 979.255L561.995 980.351Z" fill="#5D9094"/>
<path d="M649.924 1023.43C647.236 1023.43 644.553 1023.2 641.902 1022.76L642.246 1020.75C655.29 1022.98 669.756 1019.36 682.97 1010.56C695.67 1002.1 705.455 990.278 713.352 979.818L714.363 978.476C719.467 971.699 724.745 964.69 732.331 960.648L733.287 962.441C726.106 966.272 720.966 973.093 715.995 979.7L714.981 981.045C706.981 991.626 697.056 1003.61 684.106 1012.24C673.097 1019.58 661.22 1023.43 649.924 1023.43Z" fill="#5D9094"/>
<path d="M638.951 594.46C599.113 602.647 597.417 631.053 597.417 631.053C580.889 648.333 599.324 681.34 599.324 681.34H712.615C737.53 614.123 678.85 586.274 638.951 594.46Z" fill="#8C6A54"/>
<path d="M680.259 729.428H631.879L629.445 769.49L657.792 774.332L682.692 769.49L680.259 729.428Z" fill="#FFC6AE"/>
<path d="M631.88 729.424L630.211 756.902C630.211 756.902 677.72 753.29 680.26 729.424H631.88Z" fill="#FFA893"/>
<path d="M678.977 623.162C709.374 623.162 704.285 672.296 704.522 682.007C704.827 694.673 699.041 721.57 683.046 734.032C674.844 740.423 665.519 744.89 656.164 745.037C646.372 745.192 636.554 740.727 627.969 734.032C611.983 721.555 606.184 694.673 606.492 682.007C606.73 672.296 601.641 623.162 632.037 623.162H678.977Z" fill="#FFC6AE"/>
<path d="M655.509 720.709C646.677 720.709 640.733 715.042 640.644 714.954C640.355 714.671 640.19 714.285 640.186 713.881C640.181 713.477 640.337 713.088 640.62 712.799C640.903 712.51 641.289 712.345 641.693 712.341C642.097 712.336 642.487 712.492 642.776 712.775C643.254 713.24 654.653 724.004 669.345 712.166C669.501 712.04 669.68 711.946 669.872 711.89C670.064 711.834 670.266 711.815 670.465 711.837C670.664 711.858 670.858 711.918 671.033 712.014C671.209 712.11 671.365 712.24 671.49 712.396C671.616 712.552 671.71 712.731 671.766 712.923C671.823 713.115 671.841 713.316 671.82 713.515C671.798 713.714 671.738 713.907 671.642 714.083C671.546 714.259 671.416 714.414 671.26 714.54C665.498 719.175 660.111 720.709 655.509 720.709Z" fill="#FF7463"/>
<path d="M636.845 678.759C636.845 681.645 635.262 683.985 633.304 683.985C631.345 683.985 629.762 681.645 629.762 678.759C629.762 675.874 631.348 673.534 633.304 673.534C635.259 673.534 636.845 675.877 636.845 678.759Z" fill="#472C19"/>
<path d="M681.253 678.759C681.253 681.645 679.669 683.985 677.711 683.985C675.753 683.985 674.166 681.645 674.166 678.759C674.166 675.874 675.753 673.534 677.711 673.534C679.669 673.534 681.253 675.877 681.253 678.759Z" fill="#472C19"/>
<path d="M640.656 666.118C640.507 666.118 640.358 666.096 640.215 666.054C635.725 664.739 630.952 664.731 626.458 666.033C626.077 666.167 625.658 666.144 625.293 665.969C624.928 665.794 624.648 665.481 624.514 665.1C624.38 664.719 624.403 664.3 624.578 663.935C624.753 663.571 625.066 663.291 625.447 663.157C625.752 663.05 632.781 660.634 641.095 663.132C641.45 663.233 641.757 663.46 641.958 663.77C642.159 664.08 642.24 664.452 642.186 664.817C642.133 665.183 641.948 665.516 641.666 665.756C641.385 665.995 641.026 666.124 640.656 666.118Z" fill="#8C6A54"/>
<path d="M670.362 666.118C670 666.121 669.649 665.996 669.371 665.764C669.094 665.533 668.907 665.21 668.846 664.854C668.785 664.497 668.853 664.131 669.037 663.82C669.222 663.509 669.511 663.274 669.854 663.157C670.158 663.053 677.184 660.634 685.501 663.132C685.889 663.249 686.214 663.515 686.406 663.871C686.597 664.227 686.64 664.645 686.523 665.033C686.406 665.42 686.14 665.745 685.784 665.937C685.427 666.128 685.009 666.17 684.621 666.054C680.134 664.725 675.359 664.717 670.868 666.032C670.705 666.089 670.534 666.118 670.362 666.118Z" fill="#8C6A54"/>
<path d="M698.186 712.54C708.51 705.736 721.191 693.781 717.533 680.312C715.91 674.323 708.552 671.24 702.818 674.037L698.186 712.54Z" fill="#FFC6AE"/>
<path d="M612.831 712.54C602.507 705.736 589.825 693.781 593.483 680.312C595.106 674.323 602.464 671.24 608.199 674.037L612.831 712.54Z" fill="#FFC6AE"/>
<path d="M656.57 703.8C656.368 703.801 656.168 703.76 655.982 703.681C652.91 702.383 650.403 700.033 648.91 697.053C648.731 696.69 648.703 696.27 648.833 695.886C648.963 695.503 649.24 695.186 649.603 695.006C649.967 694.827 650.387 694.799 650.771 694.929C651.155 695.059 651.472 695.336 651.651 695.699C652.814 698.023 654.767 699.857 657.16 700.872C657.488 701.006 657.76 701.25 657.927 701.561C658.095 701.873 658.148 702.233 658.079 702.58C658.009 702.927 657.821 703.239 657.546 703.463C657.271 703.686 656.927 703.806 656.573 703.803L656.57 703.8Z" fill="#FFA893"/>
<path d="M599.43 668.282L609.614 685.842C609.614 685.842 604.902 660.692 610.259 640.305L602.828 651.735L599.43 668.282Z" fill="#8C6A54"/>
<path d="M711.473 667.329L701.289 684.889C701.289 684.889 705.759 659.739 700.402 639.352L708.074 650.783L711.473 667.329Z" fill="#8C6A54"/>
<path d="M599.43 646.047C599.43 646.047 610.259 664.064 643.924 653.29C643.924 653.29 618.135 646.047 633.298 620.012C633.304 620.024 613.466 612.638 599.43 646.047Z" fill="#8C6A54"/>
<path d="M666.311 615.973C664.691 620.721 683.314 661.367 708.18 668.531L705.936 630.819L691.138 613.81L666.311 615.973Z" fill="#8C6A54"/>
<path d="M618.141 622.051C618.141 622.051 662.65 624.376 674.177 656.723C674.177 656.723 681.846 633.116 670.319 615.639C658.791 598.161 618.141 622.051 618.141 622.051Z" fill="#8C6A54"/>
<path d="M661.688 656.446C654.72 635.84 635.543 624.123 628.965 624.434L628.861 622.401C636.78 622.008 656.474 634.69 663.613 655.795L661.688 656.446Z" fill="#8C6A54"/>
<path d="M711.57 662.384C700.907 655.02 691.917 645.493 685.188 634.422L686.926 633.369C693.508 644.193 702.298 653.509 712.725 660.71L711.57 662.384Z" fill="#7F5940"/>
<path d="M630.846 622.763C625.675 620.153 621.64 615.739 619.508 610.356L621.402 609.616C623.351 614.53 627.035 618.56 631.757 620.943L630.846 622.763Z" fill="#7F5940"/>
<path d="M658.141 628.612L657.242 626.786C665.357 622.805 672.664 617.357 678.795 610.718C680.181 609.218 681.697 607.443 682.127 605.365L684.118 605.776C683.585 608.362 681.862 610.395 680.287 612.096C673.989 618.921 666.48 624.521 658.141 628.612Z" fill="#7F5940"/>
<path d="M604.388 651.205C601.407 648.539 599.146 645.166 597.812 641.397L599.731 640.718C600.951 644.166 603.02 647.253 605.746 649.693L604.388 651.205Z" fill="#7F5940"/>
<path d="M-1.8686 652.734C-3.37009 653.955 -5.26353 654.59 -7.19816 654.523C-9.12992 654.443 -10.9726 653.69 -12.4059 652.393C-13.9782 653.507 -15.8987 654.02 -17.8177 653.838C-19.7347 653.669 -21.5294 652.826 -22.8823 651.458C-24.5163 652.476 -26.4596 652.88 -28.3641 652.597C-30.2525 652.316 -31.9853 651.39 -33.2673 649.976C-34.932 650.911 -36.8761 651.221 -38.7492 650.85C-40.6175 650.505 -42.3036 649.511 -43.5092 648.044C-45.1989 648.909 -47.1392 649.154 -48.9911 648.735C-50.641 648.361 -52.1322 647.48 -53.2547 646.215C-55.0661 647.214 -57.1893 647.49 -59.1964 646.988C-60.6188 646.632 -61.9183 645.897 -62.9568 644.862C-63.9954 643.828 -64.7344 642.532 -65.0955 641.111C-66.5793 641.082 -68.0265 640.646 -69.2786 639.85C-70.5308 639.054 -71.5396 637.929 -72.1944 636.598C-72.8596 635.269 -73.145 633.782 -73.0193 632.301C-72.8935 630.82 -72.3615 629.403 -71.4818 628.205C-72.4438 626.976 -73.032 625.497 -73.1761 623.943C-73.3203 622.39 -73.0144 620.828 -72.2949 619.443C-72.1731 619.218 -72.0513 618.996 -71.9112 618.77C-71.7863 618.527 -71.6463 618.302 -71.5031 618.08C-70.5948 616.639 -69.2476 615.527 -67.6597 614.908C-67.7666 614.099 -67.7522 613.279 -67.6171 612.474C-67.3034 610.599 -66.3316 608.898 -64.8762 607.675C-65.5032 606.476 -65.8204 605.139 -65.7991 603.787C-65.7778 602.434 -65.4187 601.108 -64.7544 599.929C-63.8785 598.376 -62.5165 597.152 -60.8776 596.447C-59.2387 595.742 -57.4134 595.593 -55.6819 596.025C-54.9842 594.912 -54.028 593.983 -52.8945 593.318C-51.7609 592.653 -50.4835 592.272 -49.1707 592.206C-48.4622 592.166 -47.7515 592.22 -47.0572 592.367C-46.5971 591.464 -45.9686 590.657 -45.2055 589.99C-44.3371 589.215 -43.3107 588.637 -42.1971 588.296C-41.0835 587.956 -39.9092 587.861 -38.7553 588.018C-38.2132 586.647 -37.3076 585.449 -36.1358 584.554C-34.9639 583.658 -33.57 583.099 -32.1039 582.936C-30.9336 582.799 -29.7477 582.922 -28.6299 583.294C-27.5121 583.666 -26.4898 584.28 -25.6354 585.09C-24.3203 584.198 -22.7694 583.717 -21.1799 583.709C-20.432 583.689 -19.6852 583.779 -18.9628 583.973C-18.0021 582.277 -16.4645 580.981 -14.6291 580.321C-13.3063 579.839 -11.8805 579.709 -10.4921 579.944C-9.10371 580.18 -7.80057 580.772 -6.71092 581.663C-5.69647 580.906 -4.51891 580.395 -3.27214 580.173C-2.02538 579.951 -0.743858 580.022 0.470299 580.382C1.49953 580.688 2.45762 581.195 3.28891 581.875C4.1202 582.554 4.80808 583.391 5.31255 584.339C7.17344 583.824 9.15705 583.989 10.9071 584.804C12.2088 585.399 13.326 586.334 14.1413 587.51C15.3182 587.048 16.5844 586.86 17.8447 586.959C19.6631 587.098 21.3807 587.849 22.7174 589.089C23.6634 588.44 24.7365 587.999 25.8658 587.796C26.9951 587.592 28.1549 587.63 29.2682 587.908C30.765 588.277 32.126 589.063 33.1926 590.175C34.2592 591.287 34.9874 592.68 35.2921 594.19C36.8532 594.359 38.3315 594.977 39.5478 595.97C40.7641 596.962 41.6661 598.286 42.1444 599.78C42.2394 600.06 42.3147 600.345 42.3698 600.635C43.0225 600.698 43.6648 600.841 44.2823 601.061C45.4669 601.474 46.5393 602.156 47.4146 603.054C48.2899 603.952 48.9441 605.041 49.3256 606.235C50.8811 606.174 52.4214 606.561 53.7631 607.35C55.1048 608.139 56.1914 609.296 56.8936 610.684C57.638 612.136 57.9259 613.779 57.7194 615.398C57.5129 617.016 56.8216 618.535 55.7363 619.753C56.5475 621.117 56.9431 622.688 56.8744 624.273C56.8057 625.857 56.2757 627.388 55.3495 628.676C55.2673 628.777 55.2064 628.88 55.1241 628.981C55.8617 630.141 56.2895 631.47 56.3667 632.843C56.4652 634.474 56.0696 636.097 55.2313 637.5C54.3931 638.904 53.1512 640.022 51.6675 640.71C51.7316 642.675 51.0802 644.596 49.8341 646.118C48.5879 647.64 46.8318 648.658 44.8913 648.984C43.0754 649.289 41.2098 648.967 39.6014 648.071C38.381 649.47 36.7145 650.404 34.884 650.716C33.0391 651.024 31.144 650.695 29.5118 649.782C28.2524 651.174 26.5485 652.086 24.6908 652.362C22.8075 652.663 20.8786 652.273 19.2608 651.264C17.9258 652.646 16.1474 653.517 14.2358 653.723C12.3122 653.922 10.3802 653.433 8.78442 652.341C7.35401 653.672 5.48787 654.438 3.53405 654.496H3.2295C1.37737 654.515 -0.42424 653.892 -1.8686 652.734ZM-6.66825 638.26C-4.90837 638.312 -3.21447 638.941 -1.84734 640.049C-0.487259 638.958 1.19073 638.337 2.9341 638.281C4.67979 638.204 6.40207 638.705 7.8342 639.705C9.12733 638.515 10.7674 637.768 12.5151 637.575C14.2892 637.391 16.0747 637.791 17.601 638.713C18.85 637.426 20.4868 636.584 22.2606 636.315C24.0536 636.043 25.886 636.38 27.4652 637.271C28.6885 635.921 30.3289 635.018 32.1248 634.708C33.9455 634.399 35.8175 634.714 37.4361 635.603C38.1766 634.763 39.0828 634.086 40.0978 633.613C40.043 631.693 40.6626 629.815 41.8489 628.305C40.9874 626.93 40.5544 625.331 40.6048 623.709C40.6552 622.088 41.1869 620.518 42.1322 619.2C42.2909 618.981 42.4606 618.771 42.6408 618.57C42.5616 618.405 42.458 618.244 42.3788 618.083C42.1756 617.694 42.0114 617.286 41.8886 616.865C40.8545 616.906 39.8218 616.754 38.8431 616.418C37.524 615.951 36.3479 615.151 35.4286 614.097C34.5094 613.042 33.8781 611.768 33.5958 610.398C32.019 610.238 30.523 609.623 29.2909 608.627C28.0587 607.631 27.1439 606.297 26.6582 604.789C26.5614 604.503 26.4801 604.211 26.4146 603.916C26.0574 603.876 25.704 603.808 25.3578 603.712C24.0202 603.391 22.7873 602.733 21.7763 601.801C20.24 602.855 18.3854 603.343 16.529 603.183C15.3337 603.089 14.1739 602.732 13.1325 602.138C12.0912 601.544 11.194 600.727 10.5051 599.747C9.47943 600.159 8.38042 600.357 7.27544 600.329C6.17046 600.301 5.08286 600.048 4.0792 599.585C2.47286 598.837 1.15223 597.589 0.314972 596.028C-1.15086 596.439 -2.70351 596.425 -4.16184 595.988C-5.19093 595.68 -6.15063 595.176 -6.98804 594.503C-7.6237 594.972 -8.3231 595.348 -9.06506 595.62C-10.6382 596.192 -12.3499 596.263 -13.9652 595.824C-14.6656 597.07 -15.6813 598.111 -16.9105 598.842C-18.1397 599.573 -19.5394 599.969 -20.9697 599.99C-23.0712 600.013 -25.0993 599.219 -26.6252 597.775C-27.7106 598.512 -28.96 598.973 -30.2645 599.117C-30.9145 599.192 -31.5715 599.185 -32.2197 599.095C-32.6896 600.284 -33.436 601.344 -34.3972 602.187C-35.3527 603.03 -36.493 603.636 -37.7261 603.958C-38.9592 604.279 -40.2506 604.307 -41.4962 604.038C-42.1494 605.309 -43.1252 606.387 -44.3262 607.163C-45.5272 607.939 -46.911 608.386 -48.3393 608.46C-49.1459 608.499 -49.9539 608.423 -50.7391 608.235C-51.1665 608.938 -51.702 609.569 -52.3258 610.106C-51.5192 611.67 -51.2414 613.453 -51.534 615.188C-51.7646 616.567 -52.3487 617.863 -53.2293 618.95C-54.1099 620.036 -55.257 620.876 -56.559 621.388C-56.2961 623.298 -56.7214 625.24 -57.7589 626.866C-57.7772 626.887 -57.7985 626.926 -57.8198 626.948C-57.9997 627.321 -58.2182 627.675 -58.4716 628.004C-58.1304 628.431 -57.8363 628.895 -57.5945 629.385C-57.337 629.899 -57.1329 630.437 -56.9854 630.992C-56.3821 631.016 -55.7825 631.098 -55.1947 631.236C-53.6108 631.626 -52.1845 632.492 -51.1076 633.716C-49.3615 632.746 -47.3202 632.45 -45.37 632.882C-43.613 633.285 -42.0389 634.258 -40.8932 635.649C-39.2888 634.828 -37.4571 634.562 -35.6854 634.894C-33.9175 635.223 -32.31 636.133 -31.1172 637.478C-29.5642 636.594 -27.7592 636.257 -25.9918 636.522C-24.2387 636.776 -22.6171 637.597 -21.3748 638.859C-19.8648 637.929 -18.0957 637.509 -16.3284 637.66C-14.561 637.817 -12.8951 638.553 -11.5898 639.754C-10.2217 638.785 -8.58565 638.266 -6.90885 638.269H-6.64394L-6.66825 638.26Z" fill="#674F3F"/>
<path d="M49.568 678.699C49.568 678.699 53.0003 647.079 50.2898 635.304C43.2487 604.716 18.3977 591.706 -7.87849 591.706C-34.6786 591.706 -60.0016 605.24 -66.4549 637.152C-68.7634 648.57 -63.9485 678.626 -65.3342 678.699H49.568Z" fill="#674F3F"/>
<path d="M16.866 727.288H-31.5142L-33.9475 767.353L-50.5605 807.525L34.7915 798.325L19.2993 767.353L16.866 727.288Z" fill="#EA9572"/>
<path d="M-31.5127 727.288L-33.1816 754.766C-33.1816 754.766 14.3276 751.154 16.8675 727.288H-31.5127Z" fill="#DB7D50"/>
<path d="M15.585 621.025C45.9817 621.025 40.8928 670.159 41.1303 679.871C41.4349 692.537 35.6485 719.433 19.6537 731.893C11.4554 738.284 2.12711 742.754 -7.22551 742.9C-17.0197 743.052 -26.8383 738.588 -35.4235 731.893C-51.4091 719.415 -57.2076 692.537 -56.897 679.871C-56.6625 670.159 -61.7514 621.025 -31.3516 621.025H15.585Z" fill="#EA9572"/>
<path d="M11.8256 710.258L-24.0469 710.915C-24.0469 710.915 -20.2887 726.582 -6.73645 726.582C6.81585 726.582 11.8256 710.258 11.8256 710.258Z" fill="#DE6655"/>
<path d="M17.8621 676.63C17.8621 679.515 16.2755 681.855 14.3172 681.855C12.359 681.855 10.7754 679.515 10.7754 676.63C10.7754 673.745 12.362 671.404 14.3172 671.404C16.2724 671.404 17.8621 673.742 17.8621 676.63Z" fill="#472C19"/>
<path d="M6.96963 663.981C6.60784 663.985 6.2566 663.86 5.97881 663.628C5.70102 663.396 5.51479 663.074 5.45359 662.717C5.39239 662.361 5.46015 661.994 5.64475 661.683C5.82934 661.372 6.1187 661.137 6.46098 661.02C6.76553 660.917 13.7914 658.494 22.1086 660.996C22.4963 661.112 22.8217 661.378 23.0133 661.735C23.2049 662.091 23.2471 662.509 23.1303 662.896C23.0136 663.284 22.7477 663.609 22.391 663.801C22.0343 663.992 21.6161 664.034 21.2284 663.917C16.7424 662.59 11.9689 662.582 7.47819 663.893C7.31508 663.952 7.143 663.982 6.96963 663.981Z" fill="#674F3F"/>
<path d="M34.8008 710.389C45.1279 703.584 57.8062 691.63 54.1486 678.16C52.5254 672.171 45.1675 669.085 39.4329 671.882L34.8008 710.389Z" fill="#EA9572"/>
<path d="M-58.998 631.409C-56.1018 634.2 -52.0514 636.178 -47.6659 636.945C-43.2195 637.721 -38.5051 637.279 -34.1684 638.399C-30.1271 639.44 -26.5943 641.793 -22.3794 642.152C-16.252 642.672 -10.7397 638.865 -4.59397 638.539C1.00055 638.235 6.45192 640.871 12.0038 640.235C14.9944 639.894 17.7019 638.631 20.6194 638.001C24.5481 637.155 28.7051 637.483 32.7312 637.048C36.7573 636.613 41.0575 635.079 42.5559 631.999C42.5559 631.999 22.9614 622.297 -8.22108 622.297C-39.4036 622.297 -58.998 631.409 -58.998 631.409Z" fill="#674F3F"/>
<path d="M-26.9514 647.164C-27.9544 647.613 -29.0378 647.856 -30.1367 647.877C-31.2357 647.898 -32.3275 647.697 -33.3469 647.286C-34.6191 646.777 -35.7399 645.952 -36.6025 644.888C-37.8642 645.51 -39.2672 645.79 -40.6712 645.7C-42.6803 645.582 -44.573 644.719 -45.9795 643.281C-46.946 643.877 -48.0272 644.262 -49.1527 644.413C-50.2782 644.563 -51.4227 644.475 -52.512 644.154C-53.6886 643.821 -54.7733 643.223 -55.6829 642.406C-56.5924 641.588 -57.3027 640.574 -57.7593 639.44C-59.002 639.637 -60.2734 639.543 -61.4736 639.165C-62.6737 638.788 -63.7698 638.137 -64.6755 637.264C-66.2229 635.762 -67.1128 633.709 -67.1511 631.553C-67.1893 629.397 -66.3728 627.314 -64.8796 625.758C-64.0474 624.899 -63.0367 624.234 -61.9189 623.809C-60.8012 623.384 -59.6036 623.21 -58.411 623.299C-57.5042 622.371 -56.3878 621.673 -55.1554 621.266C-53.2796 620.645 -51.2421 620.725 -49.4208 621.491C-48.283 619.898 -46.6061 618.77 -44.7004 618.317C-42.7992 617.859 -40.7965 618.106 -39.0632 619.011C-37.8092 617.524 -36.0629 616.536 -34.1417 616.226C-32.2211 615.908 -30.2501 616.29 -28.5868 617.3C-27.2386 615.905 -25.4336 615.041 -23.5009 614.866C-21.5673 614.689 -19.6343 615.208 -18.0495 616.33C-16.62 615.02 -14.7622 614.276 -12.8235 614.236C-10.878 614.18 -8.97786 614.829 -7.47267 616.062C-5.95412 614.846 -4.04443 614.224 -2.10043 614.312C-0.154732 614.374 1.70231 615.139 3.12555 616.466C4.73099 615.371 6.67395 614.881 8.60738 615.085C10.5468 615.298 12.3451 616.199 13.675 617.626C15.3606 616.639 17.3458 616.292 19.2665 616.649C21.1856 617.006 22.9137 618.037 24.1392 619.555C25.8944 618.69 27.9058 618.495 29.7947 619.008C31.7014 619.516 33.3616 620.692 34.4725 622.322C36.3218 621.607 38.3687 621.592 40.2284 622.279C41.8136 622.861 43.1785 623.921 44.134 625.313C45.0894 626.704 45.5882 628.358 45.561 630.046C45.8729 630.442 46.151 630.863 46.3924 631.306C46.9043 632.244 47.226 633.274 47.3394 634.336C47.4528 635.399 47.3555 636.474 47.0532 637.499C46.7509 638.524 46.2494 639.479 45.5774 640.311C44.9054 641.142 44.0761 641.833 43.1369 642.344V642.325C41.9937 642.951 40.7167 643.292 39.4137 643.32C38.1107 643.348 36.8201 643.062 35.6511 642.487C34.9215 643.363 34.0159 644.076 32.9929 644.581C31.9698 645.085 30.8523 645.369 29.7124 645.414C28.0438 645.489 26.3935 645.041 24.992 644.133C24.0097 645.112 22.7905 645.819 21.4531 646.187C19.4922 646.72 17.403 646.503 15.5937 645.579C14.7947 646.528 13.7889 647.281 12.6535 647.782C11.518 648.283 10.2829 648.517 9.04286 648.467C7.97227 648.422 6.92128 648.165 5.95056 647.712C4.97984 647.258 4.10869 646.617 3.3875 645.825C1.83405 646.709 0.0334091 647.058 -1.73804 646.82C-2.90422 646.662 -4.02219 646.253 -5.01496 645.621C-5.94036 646.521 -7.06995 647.183 -8.30712 647.551C-10.209 648.134 -12.2593 647.996 -14.0661 647.164C-14.7871 648.097 -15.7027 648.863 -16.7491 649.407C-17.7956 649.951 -18.9481 650.262 -20.1266 650.317C-20.2618 650.335 -20.3982 650.342 -20.5346 650.338C-21.7756 650.333 -22.9989 650.044 -24.111 649.494C-25.2232 648.944 -26.1947 648.147 -26.9514 647.164ZM-17.1054 634.784C-16.0747 633.448 -14.6523 632.467 -13.0367 631.978C-11.9145 631.639 -10.7324 631.545 -9.57059 631.703C-8.40879 631.86 -7.29444 632.265 -6.30318 632.891C-5.42217 632.036 -4.3582 631.392 -3.1917 631.009C-2.02519 630.625 -0.786713 630.511 0.43029 630.676C2.32889 630.933 4.07763 631.846 5.37314 633.256C6.69757 632.486 8.21545 632.112 9.74638 632.179C10.9144 632.233 12.0571 632.538 13.0964 633.074C13.4458 632.659 13.8333 632.278 14.2537 631.936C13.3393 631.509 12.517 630.908 11.8326 630.167C10.3218 631.049 8.56892 631.427 6.8288 631.245C5.09154 631.059 3.46265 630.311 2.19057 629.114C0.743752 630.101 -0.980446 630.6 -2.73087 630.539C-4.48582 630.474 -6.17181 629.839 -7.53356 628.731C-8.91272 629.825 -10.6122 630.439 -12.3728 630.478C-14.1256 630.531 -15.8477 630.009 -17.276 628.993C-18.5866 630.172 -20.2412 630.899 -21.9965 631.068C-23.7395 631.223 -25.4864 630.817 -26.9819 629.909C-27.7005 630.64 -28.5482 631.232 -29.4822 631.656C-28.7151 631.74 -27.9625 631.925 -27.2438 632.206C-25.9105 632.745 -24.7454 633.629 -23.8694 634.769C-22.9367 634.356 -21.937 634.114 -20.9183 634.057H-20.5103C-19.3367 634.056 -18.1762 634.304 -17.1054 634.784ZM-33.8555 632.447C-33.7732 632.407 -33.6941 632.365 -33.6331 632.343L-33.9773 632.286C-33.9499 632.343 -33.9103 632.386 -33.8677 632.447H-33.8555Z" fill="#674F3F"/>
<path d="M-46.9114 786.885C-46.9114 786.885 -11.6663 799.485 34.7922 786.885V1024.91H-55.8438L-46.9114 786.885Z" fill="#FFF1DD"/>
<path d="M97.1695 866.026L102.042 807.525C102.042 807.525 78.9485 771.952 35.4654 769.398L7.64207 798.325H0.0527344C0.0527344 798.325 1.344 914.165 5.30006 1024.91H92.7536C96.4203 994.511 101.345 936.615 97.1695 866.026Z" fill="#FADEE1"/>
<path d="M205.183 938.694C204.175 918.772 166.018 850.256 119.91 805.884L87.7012 879.279L134.516 940.033L101.713 999.958C98.268 1004.88 96.8045 1010.92 97.6142 1016.87L107.204 1024.91H152.932C172.709 1002.4 206.298 960.758 205.183 938.694Z" fill="#FDF1F2"/>
<path d="M103.02 791.039C81.0439 773.717 33.7813 767.243 27.9219 767.408L54.7707 836.524L92.1354 888.705L119.925 805.884C114.379 800.552 108.73 795.546 103.02 791.039Z" fill="#FADEE1"/>
<path d="M18.8432 767.35L18.0788 754.766C18.0788 754.766 48.0826 769.916 40.74 782.643C33.3974 795.37 7.63281 798.325 7.63281 798.325L18.8432 767.35Z" fill="#F5C0C6"/>
<path d="M97.6225 1016.87C97.6225 1016.87 95.0521 1020.47 92.1406 1024.91H107.213L97.6225 1016.87Z" fill="#F9D6D9"/>
<path d="M175.892 944.026C161.95 942.395 147.746 941.336 133.673 940.879C133.482 940.872 133.296 940.811 133.138 940.703C132.98 940.596 132.855 940.446 132.778 940.27C132.699 940.097 132.671 939.905 132.697 939.717C132.723 939.528 132.801 939.351 132.924 939.205C136.099 935.446 140.139 932.511 144.697 930.653C149.255 928.794 154.196 928.066 159.097 928.532L158.893 930.553C154.684 930.158 150.439 930.703 146.467 932.15C142.495 933.596 138.895 935.907 135.927 938.916C149.327 939.412 162.852 940.438 176.127 941.999L175.892 944.026Z" fill="#F9D6D9"/>
<path d="M11.4196 814.042C11.844 812.254 10.7371 810.46 8.94735 810.036C7.1576 809.612 5.3627 810.718 4.93832 812.506C4.51394 814.295 5.6208 816.088 7.41056 816.512C9.20032 816.937 10.9952 815.83 11.4196 814.042Z" fill="#FDF1F2"/>
<path d="M13.4834 873.793C15.3286 873.793 16.8243 872.298 16.8243 870.454C16.8243 868.61 15.3286 867.116 13.4834 867.116C11.6383 867.116 10.1426 868.61 10.1426 870.454C10.1426 872.298 11.6383 873.793 13.4834 873.793Z" fill="#FDF1F2"/>
<path d="M14.4269 933.384C16.272 933.384 17.7677 931.889 17.7677 930.045C17.7677 928.201 16.272 926.707 14.4269 926.707C12.5818 926.707 11.0859 928.201 11.0859 930.045C11.0859 931.889 12.5818 933.384 14.4269 933.384Z" fill="#FDF1F2"/>
<path d="M16.1767 992.717C17.8814 992.011 18.691 990.058 17.9849 988.355C17.2788 986.651 15.3244 985.843 13.6198 986.548C11.9151 987.254 11.1056 989.207 11.8117 990.91C12.5178 992.613 14.4721 993.422 16.1767 992.717Z" fill="#FDF1F2"/>
<path d="M134.577 1026L133.094 1024.61C147.648 1009.16 159.681 991.531 168.753 972.353L170.58 973.223C161.422 992.592 149.272 1010.4 134.577 1026Z" fill="#F9D6D9"/>
<path d="M63.2487 989.544C63.1021 989.173 62.8815 988.835 62.6002 988.552C62.3189 988.269 61.9828 988.045 61.6125 987.896C61.2421 987.746 60.8452 987.674 60.4459 987.682C60.0465 987.691 59.6532 987.781 59.2896 987.946C58.9261 988.111 58.6 988.349 58.3312 988.644C58.0623 988.939 57.8564 989.286 57.7259 989.663C57.5955 990.041 57.5432 990.44 57.5722 990.838C57.6013 991.236 57.711 991.625 57.8949 991.979C64.735 1006.24 73.6338 1017.38 80.7114 1024.9H88.6296C71.6207 1005.88 65.4323 994.62 63.2487 989.544Z" fill="#F5C0C6"/>
<path d="M42.6005 984.097L41.0625 982.767C61.0526 959.675 75.2237 932.139 82.3924 902.458L84.372 902.935C77.1246 932.931 62.8023 960.759 42.6005 984.097Z" fill="#F5C0C6"/>
<path d="M433.063 808.374C421.158 795.683 386.096 785.854 386.096 785.854C386.096 785.854 384.253 931.189 390.819 1024.91H459.037C454.162 944.558 444.827 820.921 433.063 808.374Z" fill="#E4C3A6"/>
<path d="M263.442 735.539C264.432 739.662 265.617 743.816 265.464 748.056C265.312 752.295 263.567 756.738 259.937 758.932C273.766 761.69 287.877 762.767 301.964 762.14C304.864 762.012 307.854 761.787 310.44 760.469C316.135 757.569 318.096 750.496 319.037 744.179C320.502 734.327 320.938 724.358 321.37 714.409L323.273 670.585C323.611 662.84 323.602 654.152 318.191 648.592C314.399 644.699 308.75 643.302 303.396 642.45C294.64 641.062 284.627 626.969 278.977 634.264C268.376 647.959 265.863 659.669 263.984 667.074C258.338 689.411 258.061 713.119 263.442 735.539Z" fill="#DDA859"/>
<path d="M388.444 735.539C387.455 739.662 386.27 743.816 386.419 748.056C386.568 752.295 388.319 756.738 391.95 758.932C378.121 761.69 364.01 762.767 349.922 762.14C347.023 762.012 344.032 761.787 341.447 760.469C335.749 757.569 333.79 750.496 332.849 744.179C331.382 734.327 330.949 724.358 330.517 714.409L328.613 670.585C328.275 662.84 328.281 654.152 333.693 648.592C337.488 644.699 343.134 643.302 348.491 642.45C357.247 641.062 367.26 626.969 372.906 634.264C383.511 647.959 386.023 659.669 387.902 667.074C393.558 689.411 393.826 713.119 388.444 735.539Z" fill="#DDA859"/>
<path d="M354.949 995.044L406.527 816.859L350.49 777.025H302.497L245.379 814.741L242.541 929.284L249.272 992.923C249.272 992.923 247.609 1004.34 244.508 1024.91H354.514L354.949 995.044Z" fill="#E4C3A6"/>
<path d="M359.612 797.062V775.759H297.348V797.29C306.761 799.402 330.488 803.231 359.612 797.062Z" fill="#FFD7D0"/>
<path d="M297.348 797.293V868.035H359.612V797.062C330.488 803.231 306.761 799.402 297.348 797.293Z" fill="#B58A77"/>
<path d="M276.343 782.919C276.343 782.919 243.757 787.055 224.945 802.984C209.821 815.799 159.772 970.253 190.531 991.86C205.092 1002.08 235.586 982.039 235.586 982.039L234.691 955.63L233.862 935.005L244.704 893.753L276.343 782.919Z" fill="#E4C3A6"/>
<path d="M400.561 998.516L420.314 917.485L388.473 859.285L348.106 996.103L345.916 1024.91H406.92C403.073 1008.46 400.561 998.516 400.561 998.516Z" fill="#E4C3A6"/>
<path d="M383.396 694.031C395.995 639.465 362.343 615.73 325.944 615.73C289.544 615.73 255.898 639.468 268.488 694.031H383.396Z" fill="#DDA859"/>
<path d="M348.115 745.792H304.867L302.494 777.025H350.491L348.115 745.792Z" fill="#FFD7D0"/>
<path d="M304.867 745.792L303.195 767.779C303.195 767.779 337.14 760.539 348.116 745.792H304.867Z" fill="#FFBBB8"/>
<path d="M370.789 673.617C370.789 682.746 371.093 691.286 371.182 694.847C371.523 708.806 370.164 729.151 352.498 742.931C344.884 748.874 335.668 754.23 326.432 754.331C316.869 754.44 307.279 749.084 299.388 742.931C281.724 729.154 280.363 708.809 280.704 694.847C280.798 691.018 281.069 681.456 281.337 671.559C281.736 656.808 297.223 641.826 326.432 641.826C355.641 641.826 370.789 659.77 370.789 673.617Z" fill="#FFD7D0"/>
<path d="M325.948 732.322C317.299 732.322 311.5 726.783 311.412 726.695C311.123 726.412 310.958 726.027 310.953 725.623C310.949 725.218 311.105 724.829 311.388 724.54C311.67 724.251 312.056 724.086 312.461 724.082C312.865 724.077 313.255 724.233 313.544 724.516C314.01 724.966 325.117 735.447 339.43 723.907C339.586 723.781 339.765 723.688 339.958 723.631C340.15 723.575 340.351 723.557 340.551 723.578C340.75 723.599 340.943 723.66 341.119 723.756C341.295 723.851 341.45 723.981 341.576 724.137C341.701 724.293 341.795 724.472 341.852 724.664C341.908 724.856 341.926 725.057 341.905 725.257C341.884 725.456 341.823 725.649 341.727 725.824C341.631 726 341.502 726.155 341.346 726.281C335.712 730.8 330.443 732.322 325.948 732.322Z" fill="#FF6F65"/>
<path d="M308.805 693.499C308.805 696.314 307.258 698.596 305.345 698.596C303.433 698.596 301.889 696.314 301.889 693.499C301.889 690.683 303.436 688.398 305.345 688.398C307.255 688.398 308.805 690.68 308.805 693.499Z" fill="#452C1A"/>
<path d="M350.979 693.499C350.979 696.314 349.429 698.596 347.519 698.596C345.61 698.596 344.062 696.314 344.062 693.499C344.062 690.683 345.61 688.398 347.519 688.398C349.429 688.398 350.979 690.68 350.979 693.499Z" fill="#452C1A"/>
<path d="M312.518 681.727C312.369 681.727 312.222 681.705 312.079 681.663C307.706 680.38 303.057 680.373 298.679 681.642C298.298 681.776 297.878 681.754 297.513 681.579C297.148 681.404 296.868 681.092 296.733 680.711C296.599 680.329 296.621 679.91 296.796 679.545C296.971 679.181 297.283 678.9 297.665 678.766C297.954 678.663 304.834 676.298 312.959 678.742C313.315 678.842 313.622 679.069 313.823 679.379C314.024 679.69 314.105 680.063 314.051 680.428C313.997 680.794 313.811 681.127 313.529 681.366C313.247 681.605 312.888 681.734 312.518 681.727Z" fill="#DDA859"/>
<path d="M354.69 681.727C354.541 681.726 354.394 681.705 354.251 681.663C349.878 680.38 345.229 680.372 340.851 681.642C340.469 681.776 340.05 681.754 339.685 681.579C339.32 681.404 339.04 681.092 338.905 680.711C338.771 680.329 338.793 679.91 338.968 679.545C339.143 679.181 339.455 678.9 339.837 678.766C340.142 678.662 347.006 676.295 355.131 678.742C355.487 678.842 355.794 679.069 355.995 679.379C356.196 679.69 356.277 680.062 356.223 680.428C356.169 680.794 355.983 681.127 355.701 681.366C355.419 681.605 355.059 681.733 354.69 681.727Z" fill="#DDA859"/>
<path d="M383.203 693.264C381.702 687.728 374.746 684.877 369.447 687.464L367.199 723.052C376.75 716.762 386.59 705.714 383.203 693.264Z" fill="#FFD7D0"/>
<path d="M327.562 716.037C327.407 716.038 327.252 716.014 327.105 715.967C324.139 715.039 321.602 713.228 320.146 711.028C319.923 710.69 319.844 710.278 319.926 709.882C320.008 709.486 320.243 709.138 320.581 708.916C320.919 708.693 321.332 708.614 321.728 708.696C322.125 708.778 322.472 709.013 322.695 709.351C323.773 710.985 325.71 712.336 328.018 713.058C328.37 713.163 328.673 713.392 328.869 713.702C329.065 714.012 329.143 714.383 329.087 714.746C329.032 715.109 328.847 715.44 328.566 715.677C328.286 715.914 327.929 716.042 327.562 716.037Z" fill="#FFACA8"/>
<path d="M302.498 777.025L303.685 761.41C303.685 761.41 288.068 768.038 275.972 774.992C263.875 781.946 254.318 820.13 254.318 820.13L284.091 815.888L267.054 832.857C267.054 832.857 273.234 858.476 296.34 873.604C325.5 892.694 329.888 891.517 340.395 904.359C340.395 904.359 332.239 863.528 310.854 832.842C296.891 812.863 302.498 777.025 302.498 777.025Z" fill="#F4E6D5"/>
<path d="M398.78 820.13C398.78 820.13 389.226 781.949 377.124 774.992C365.021 768.035 349.337 761.875 349.337 761.875L350.491 777.024C350.491 777.024 356.198 812.862 342.25 832.857C332.273 847.16 325.177 863.676 320.441 877.228L332.34 888.592C337.986 885.293 345.533 880.953 356.759 873.604C379.864 858.475 386.044 832.857 386.044 832.857L369.007 815.887L398.78 820.13Z" fill="#F4E6D5"/>
<path d="M341.404 904.341V904.107L333.257 888.139L331.445 889.052L339.382 904.609C339.455 908.541 340.387 958.268 342.053 1024.9H344.09C342.36 956.141 341.422 905.373 341.404 904.341Z" fill="#F1E0CB"/>
<path d="M249.265 992.922C249.265 992.922 327.771 997.165 400 992.922L401.751 973.302C401.751 973.302 318.93 978.372 247.279 974.13L249.265 992.922Z" fill="#F1E0CB"/>
<path d="M384.545 975.716C384.467 974.236 383.823 972.842 382.746 971.822C381.669 970.803 380.242 970.236 378.759 970.238H369.988C369.096 970.238 368.216 970.444 367.418 970.84C366.619 971.236 365.923 971.811 365.383 972.52L363.531 974.955L367.475 976.559L370.192 1024.9H387.307L384.545 975.716Z" fill="#F1E0CB"/>
<path d="M402.763 973.397L400.738 973.205C400.827 972.274 409.5 879.818 410.286 849.446L412.32 849.498C411.525 879.94 402.852 972.465 402.763 973.397Z" fill="#DBAE87"/>
<path d="M233.907 931.743C233.907 931.743 221.566 934.208 221.566 951.549C221.566 968.89 224.204 982.81 232.637 982.81C241.07 982.81 242.483 967.033 242.382 955.63C242.282 944.227 233.907 931.743 233.907 931.743Z" fill="#DBAE87"/>
<path d="M227.494 953.944C228.751 962.654 238.841 968.552 241.049 957.02C242.222 950.894 245.13 936.518 237.803 933.121C226.035 927.668 226.702 948.454 227.494 953.944Z" fill="#FFBBB8"/>
<path d="M287.234 907.902H235.809V913.027H287.234V907.902Z" fill="#FFF3EE"/>
<path d="M280.85 978.302H242.194L238.467 913.03H284.578L280.85 978.302Z" fill="#C79E71"/>
<path d="M283.153 957.355H239.892L237.797 924.211H285.248L283.153 957.355Z" fill="#886A5E"/>
<path d="M263.976 872.77H259.066V907.902H263.976V872.77Z" fill="#7D9F85"/>
<path d="M242.159 939.302H234.545C233.535 939.302 232.567 938.9 231.853 938.186C231.139 937.472 230.738 936.504 230.738 935.495C230.739 934.596 231.057 933.726 231.638 933.039C232.219 932.352 233.024 931.893 233.912 931.743L241.699 930.732C242.298 930.668 242.904 930.729 243.478 930.914C244.052 931.098 244.581 931.401 245.03 931.803C245.479 932.205 245.839 932.696 246.085 933.246C246.332 933.795 246.46 934.391 246.462 934.993C246.464 935.559 246.353 936.119 246.138 936.642C245.922 937.165 245.605 937.64 245.206 938.041C244.806 938.441 244.331 938.758 243.808 938.975C243.285 939.192 242.725 939.303 242.159 939.302Z" fill="#FFD7D0"/>
<path d="M242.374 939.303H232.933C232.433 939.303 231.937 939.401 231.475 939.593C231.013 939.784 230.593 940.064 230.239 940.418C229.885 940.771 229.604 941.191 229.413 941.653C229.222 942.115 229.123 942.61 229.123 943.11V943.661C229.123 944.161 229.222 944.656 229.413 945.118C229.604 945.58 229.885 945.999 230.239 946.353C230.593 946.706 231.013 946.987 231.475 947.178C231.937 947.369 232.433 947.468 232.933 947.468H242.374C242.91 947.468 243.442 947.362 243.937 947.157C244.433 946.952 244.883 946.651 245.263 946.271C245.642 945.892 245.943 945.442 246.148 944.946C246.353 944.451 246.458 943.92 246.458 943.384C246.458 942.848 246.352 942.317 246.147 941.822C245.942 941.327 245.641 940.877 245.262 940.498C244.882 940.119 244.432 939.818 243.937 939.613C243.441 939.408 242.91 939.303 242.374 939.303Z" fill="#FFD7D0"/>
<path d="M242.374 947.483H234.697C233.687 947.483 232.718 947.884 232.004 948.597C231.289 949.31 230.888 950.278 230.887 951.287V951.841C230.888 952.85 231.289 953.818 232.004 954.531C232.718 955.244 233.687 955.645 234.697 955.645H242.374C243.457 955.645 244.496 955.215 245.262 954.45C246.028 953.684 246.458 952.646 246.458 951.564C246.458 950.482 246.028 949.444 245.262 948.678C244.496 947.913 243.457 947.483 242.374 947.483Z" fill="#FFD7D0"/>
<path d="M241.134 955.63H236.447C235.436 955.63 234.467 956.031 233.753 956.745C233.038 957.459 232.637 958.427 232.637 959.437V959.988C232.637 960.998 233.038 961.966 233.753 962.68C234.467 963.394 235.436 963.795 236.447 963.795H241.134C242.217 963.795 243.255 963.365 244.021 962.6C244.787 961.834 245.217 960.796 245.217 959.714C245.218 959.178 245.113 958.647 244.907 958.151C244.702 957.656 244.402 957.206 244.022 956.826C243.643 956.447 243.193 956.146 242.697 955.941C242.201 955.736 241.67 955.63 241.134 955.63Z" fill="#FFD7D0"/>
<path d="M193.512 946.631L192.869 944.698L194.371 944.199C204.421 940.851 221.222 935.249 230.651 934.485L230.813 936.509C221.634 937.254 204.317 943.027 195.016 946.129L193.512 946.631Z" fill="#DBAE87"/>
<path d="M243.72 906.907C243.479 906.091 243.285 902.777 242.861 895.342C242.127 882.46 240.903 860.892 238.445 844.966L240.455 844.662C242.925 860.682 244.159 882.308 244.893 895.23C245.212 900.829 245.502 905.665 245.672 906.322L243.72 906.907Z" fill="#DBAE87"/>
<path d="M242.009 879.271C240.182 876.285 238.08 873.278 235.851 870.095C231.167 863.415 226.328 856.507 223.895 849.328L225.819 848.676C228.164 855.578 232.918 862.371 237.517 868.929C239.767 872.137 241.89 875.171 243.745 878.208L242.009 879.271Z" fill="#DBAE87"/>
<path d="M404.216 975.813L404.066 973.783C415.663 972.879 426.775 968.746 436.141 961.854L437.359 963.485C427.682 970.609 416.199 974.88 404.216 975.813Z" fill="#DBAE87"/>
<path d="M401.006 992.764L398.996 993.068C399.042 993.355 401.1 1006.44 403.978 1024.9H406.043C403.135 1006.29 401.052 993.05 401.006 992.764Z" fill="#DBAE87"/>
<path d="M384.838 993.671C384.627 987.2 384.085 980.744 383.215 974.328L385.231 974.023C386.111 980.519 386.658 987.056 386.872 993.607L384.838 993.671Z" fill="#E4C3A6"/>
<path d="M367.458 994.35L366.05 975.928L363.553 975.98L363.514 973.947L367.933 973.856L369.489 994.194L367.458 994.35Z" fill="#E4C3A6"/>
<path d="M332.719 912.026C333.274 909.663 331.807 907.298 329.442 906.744C327.078 906.19 324.711 907.656 324.157 910.019C323.602 912.382 325.069 914.747 327.434 915.301C329.798 915.855 332.165 914.389 332.719 912.026Z" fill="#B58A77"/>
<path d="M377.869 680.202L370.968 686.897C370.968 686.897 354.239 651.431 337.596 641.719C337.596 641.719 351.334 633.436 363.01 643.348C374.686 653.26 377.869 680.202 377.869 680.202Z" fill="#DDA859"/>
<path d="M336.929 642.66C336.929 642.66 320.688 639.869 305.631 644.973C305.631 644.973 313.013 635.825 323.407 635.825C333.801 635.825 336.929 642.66 336.929 642.66Z" fill="#C68D48"/>
<path d="M325.199 637.617C316.827 638.041 308.001 643.4 302.145 649.395C293.368 658.382 288.69 670.747 286.969 683.176C285.248 695.604 286.259 708.258 287.508 720.754C288.212 727.793 288.921 735.256 285.851 741.634C282.782 748.013 274.373 752.368 268.389 748.588C272.957 739.586 279.368 727.31 276.343 717.681C268.014 691.167 263.476 662.143 282.072 641.479C288.078 634.809 295.551 628.987 304.34 627.155C312.983 625.356 336.351 631.233 336.927 642.648C334.088 639.672 330.44 637.35 325.199 637.617Z" fill="#DDA859"/>
<path d="M305.254 670.732L304.361 668.906C317.341 662.542 328.49 652.988 336.762 641.139L338.431 642.301C329.962 654.435 318.545 664.218 305.254 670.732Z" fill="#C68D48"/>
<path d="M341.857 642.544L340.465 641.062C345.138 636.667 349.353 631.808 353.043 626.561L354.708 627.73C350.939 633.091 346.633 638.055 341.857 642.544Z" fill="#C68D48"/>
<path d="M373.728 677.543C371.685 665.278 368.28 650.211 360.023 642.478L361.412 640.996C370.104 649.146 373.624 664.63 375.726 677.211L373.728 677.543Z" fill="#C68D48"/>
<path d="M336.534 639.805C328.311 629.473 313.663 624.568 300.878 627.876L300.369 625.91C313.9 622.407 329.432 627.602 338.133 638.542L336.534 639.805Z" fill="#C68D48"/>
<path d="M270.978 746.808C270.789 746.807 270.605 746.754 270.445 746.655C270.285 746.555 270.156 746.413 270.072 746.245C269.988 746.076 269.952 745.888 269.969 745.7C269.986 745.513 270.055 745.334 270.168 745.183C275.083 738.6 276.609 729.781 274.836 718.213C274.142 713.676 273.073 709.129 272.037 704.728C270.53 698.337 268.974 691.715 268.514 684.947C267.932 676.334 269.038 668.693 271.8 662.238L273.673 663.038C271.036 669.195 269.982 676.52 270.545 684.81C270.993 691.417 272.528 697.948 274.017 704.266C275.062 708.703 276.149 713.292 276.849 717.909C278.555 729.044 277.303 737.812 273.021 744.62C276.822 744.118 284.768 742.003 286.991 733.119L288.967 733.615C285.69 746.68 271.215 746.808 270.978 746.808Z" fill="#C68D48"/>
<path d="M377.675 748.107C372.181 742.529 368.504 735.421 367.125 727.717L369.126 727.364C370.434 734.662 373.918 741.395 379.121 746.68L377.675 748.107Z" fill="#C68D48"/>
<path d="M334.74 886.894C331.588 875.609 325.671 862.119 325.604 861.985L327.467 861.166C327.525 861.303 333.497 874.922 336.689 886.343L334.74 886.894Z" fill="#E4C3A6"/>
<path d="M423.069 655.99C420.17 653.086 419.789 607.683 419.351 601.186C419.211 599.114 418.395 597.111 418.437 595.032C418.559 589.774 423.898 586.225 425.828 581.338C427.269 577.686 426.907 573.121 429.769 570.421C430.987 569.277 432.635 568.674 433.893 567.57C437.145 564.706 437.142 559.137 440.739 556.72C443.395 554.937 446.998 555.585 449.979 554.432C454.873 552.536 457.139 546.233 462.188 544.794C466.108 543.674 470.268 545.932 474.309 545.402C478.719 544.833 482.766 541.017 487.039 542.243C489.205 542.867 490.831 544.693 492.926 545.524C498.597 547.764 506.082 542.335 510.657 546.364C511.516 547.119 512.119 548.129 512.953 548.914C515.539 551.349 519.543 551.066 523.085 550.966C526.627 550.865 530.857 551.513 532.392 554.706C533.084 556.148 533.071 557.883 533.915 559.246C536.199 562.956 542.226 561.109 545.896 563.452C549.876 565.993 549.316 571.937 551.472 576.137C553.567 580.218 558.327 582.695 559.603 587.093C560.575 590.44 559.238 594.004 559.171 597.498C558.946 608.867 558.318 620.204 558.397 631.582C558.428 635.959 560.152 654.069 555.751 656.471L423.069 655.99Z" fill="#231F20"/>
<path d="M638.446 808.303C621.9 785.887 575.956 771.948 552.065 765.697L533.098 761.379L576.715 856.305L587.231 1024.9H656.972C654.791 930.136 650.856 825.112 638.446 808.303Z" fill="#13375D"/>
<path d="M560.74 786.529H435.17V1024.91H560.74V786.529Z" fill="#FFEADF"/>
<path d="M518.564 710.614H460.922L458.023 758.345L437.479 781.294C437.479 781.294 450.964 805.516 489.672 805.516C524.283 805.516 549.156 781.294 549.156 781.294L521.466 758.345L518.564 710.614Z" fill="#EA9572"/>
<path d="M460.922 710.614L458.934 743.347C458.934 743.347 515.527 739.044 518.564 710.614H460.922Z" fill="#DB7D50"/>
<path d="M517.034 588.849C553.251 588.849 547.184 642.545 547.471 654.115C547.839 669.207 540.932 701.241 521.889 716.098C512.119 723.706 501.006 729.038 489.863 729.212C478.196 729.394 466.495 724.078 456.268 716.098C437.219 701.241 430.312 669.207 430.686 654.115C430.97 642.551 424.9 588.849 461.123 588.849H517.034Z" fill="#EA9572"/>
<path d="M488.478 700.224C477.941 700.224 470.872 693.477 470.766 693.371C470.477 693.023 470.327 692.581 470.345 692.129C470.364 691.678 470.549 691.249 470.865 690.927C471.182 690.604 471.606 690.409 472.058 690.381C472.509 690.353 472.955 690.494 473.309 690.775C473.881 691.329 487.452 704.165 504.981 690.035C505.361 689.787 505.819 689.689 506.267 689.76C506.714 689.831 507.12 690.066 507.404 690.418C507.688 690.771 507.831 691.217 507.805 691.669C507.779 692.122 507.586 692.548 507.262 692.866C500.38 698.401 493.96 700.224 488.478 700.224Z" fill="#DE6655"/>
<path d="M466.84 650.25C466.84 653.689 464.952 656.473 462.619 656.473C460.287 656.473 458.398 653.689 458.398 650.25C458.398 646.811 460.29 644.026 462.619 644.026C464.949 644.026 466.84 646.805 466.84 650.25Z" fill="#472C19"/>
<path d="M519.748 650.25C519.748 653.689 517.857 656.473 515.527 656.473C513.197 656.473 511.303 653.689 511.303 650.25C511.303 646.811 513.194 644.026 515.527 644.026C517.86 644.026 519.748 646.805 519.748 650.25Z" fill="#472C19"/>
<path d="M471.376 635.186C471.198 635.186 471.02 635.159 470.85 635.107C465.5 633.542 459.816 633.533 454.462 635.082C454.02 635.195 453.553 635.138 453.151 634.924C452.749 634.71 452.442 634.353 452.289 633.924C452.137 633.495 452.15 633.025 452.326 632.605C452.503 632.185 452.83 631.847 453.244 631.656C453.597 631.531 461.984 628.646 471.888 631.628C472.295 631.764 472.642 632.038 472.867 632.404C473.092 632.769 473.181 633.202 473.119 633.626C473.056 634.051 472.846 634.44 472.525 634.725C472.204 635.01 471.793 635.173 471.364 635.186H471.376Z" fill="#674F3F"/>
<path d="M506.768 635.186C506.345 635.175 505.939 635.019 505.619 634.742C505.299 634.466 505.085 634.087 505.013 633.671C504.941 633.254 505.016 632.826 505.225 632.458C505.434 632.091 505.764 631.807 506.159 631.656C506.509 631.531 514.893 628.649 524.8 631.628C525.052 631.676 525.29 631.777 525.5 631.923C525.71 632.069 525.887 632.257 526.019 632.476C526.152 632.694 526.237 632.938 526.269 633.192C526.301 633.446 526.28 633.703 526.206 633.948C526.132 634.193 526.008 634.419 525.841 634.613C525.674 634.807 525.469 634.963 525.237 635.072C525.006 635.182 524.754 635.241 524.499 635.247C524.243 635.253 523.989 635.205 523.753 635.107C518.407 633.527 512.719 633.517 507.368 635.079C507.176 635.15 506.973 635.186 506.768 635.186Z" fill="#674F3F"/>
<path d="M539.918 690.477C552.222 682.369 567.327 668.127 562.972 652.079C561.038 644.943 552.27 641.266 545.439 644.599L539.918 690.477Z" fill="#EA9572"/>
<path d="M438.228 690.477C425.924 682.369 410.819 668.127 415.174 652.079C417.108 644.943 425.876 641.266 432.707 644.599L438.228 690.477Z" fill="#EA9572"/>
<path d="M492.535 679.064C488.758 679.064 485.652 677.725 483.776 676.215C482.001 674.788 481.035 673.017 481.035 671.228C481.08 670.777 481.291 670.36 481.627 670.056C481.963 669.752 482.4 669.584 482.853 669.584C483.306 669.584 483.743 669.752 484.079 670.056C484.415 670.36 484.626 670.777 484.671 671.228C484.671 671.876 485.192 672.682 486.069 673.385C487.766 674.752 491.21 676.021 495.321 675.126C495.565 675.044 495.823 675.013 496.079 675.037C496.335 675.062 496.583 675.139 496.807 675.266C497.031 675.392 497.225 675.564 497.378 675.771C497.531 675.977 497.638 676.214 497.693 676.465C497.748 676.716 497.749 676.976 497.697 677.227C497.645 677.479 497.54 677.716 497.389 677.925C497.239 678.133 497.046 678.307 496.823 678.436C496.601 678.564 496.354 678.645 496.098 678.671C494.928 678.931 493.733 679.063 492.535 679.064Z" fill="#DB7D50"/>
<path d="M422.27 637.763L434.403 658.683C434.403 658.683 428.787 628.722 435.17 604.43L426.317 618.049L422.27 637.763Z" fill="#231F20"/>
<path d="M555.752 636.628L543.619 657.548C543.619 657.548 548.946 627.587 542.562 603.295L551.699 616.914L555.752 636.628Z" fill="#231F20"/>
<path d="M462.619 862.52L448.628 766.875L374.014 808.222C374.014 808.222 343.663 912.896 349.986 950.587C352.206 963.81 353.488 992.819 354.222 1024.91H459.875C462.421 961.178 464.419 891.815 462.619 862.52Z" fill="#13375D"/>
<path d="M629.507 950.587C635.83 912.896 605.482 784 605.482 784L530.868 766.875L516.898 862.52C515.099 891.815 517.096 961.172 519.639 1024.91H625.296C626.008 992.828 627.29 963.81 629.507 950.587Z" fill="#13375D"/>
<path d="M521.467 758.345L520.474 741.984C520.474 741.984 534.483 744.693 552.387 766.876C570.292 789.058 566.914 810.748 566.914 810.748L541.262 815.593L553.444 827.395C553.444 827.395 523.133 845.213 516.899 867.682C516.88 867.682 519.706 800.592 521.467 758.345Z" fill="#4B698D"/>
<path d="M438.228 760.189C438.228 760.189 384.975 775.065 352.416 793.404C313.601 815.27 308.467 978.281 308.467 1024.91L399.31 965.439L438.228 760.189Z" fill="#13375D"/>
<path d="M458.022 758.345L458.936 743.348C458.936 743.348 445.015 744.693 427.117 766.875C409.219 789.058 412.59 810.748 412.59 810.748L438.23 815.593L426.07 827.394C426.07 827.394 456.378 845.213 462.615 867.682C462.618 867.682 459.78 800.592 458.022 758.345Z" fill="#4B698D"/>
<path d="M376.538 903.081C376.353 896.386 376.825 888.674 377.327 880.503C378.433 862.474 379.687 842.039 373.703 828.505L375.92 827.528C382.145 841.597 380.869 862.347 379.745 880.652C379.249 888.765 378.777 896.432 378.963 903.014L376.538 903.081Z" fill="#4B698D"/>
<path d="M565.38 959.553C565.233 959.553 565.088 959.526 564.951 959.474L531.786 946.945C531.556 946.857 531.357 946.703 531.217 946.5C531.077 946.298 531.001 946.059 531 945.813V884.624C531 884.301 531.128 883.992 531.357 883.763C531.585 883.535 531.895 883.407 532.218 883.407H595.868C596.191 883.407 596.501 883.535 596.73 883.763C596.958 883.992 597.087 884.301 597.087 884.624V945.813C597.086 946.053 597.014 946.287 596.88 946.486C596.746 946.685 596.556 946.841 596.334 946.933L565.84 959.462C565.694 959.522 565.538 959.553 565.38 959.553ZM533.424 944.976L565.359 957.039L594.653 945V885.835H533.439L533.424 944.976Z" fill="#4B698D"/>
<path d="M410.594 959.553C410.448 959.553 410.302 959.526 410.165 959.474L377 946.945L377.856 944.681L410.576 957.04L439.87 945V885.836H379.854V883.401H441.083C441.406 883.401 441.715 883.529 441.944 883.757C442.172 883.986 442.301 884.295 442.301 884.618V945.807C442.3 946.047 442.228 946.281 442.094 946.48C441.96 946.68 441.77 946.835 441.549 946.927L411.06 959.456C410.913 959.519 410.755 959.552 410.594 959.553Z" fill="#4B698D"/>
<path d="M462.037 874.708H378.816V877.131H462.037V874.708Z" fill="#4B698D"/>
<path d="M612.587 874.708H516.365V877.131H612.587V874.708Z" fill="#4B698D"/>
<path d="M414.287 927.291L383.684 910.248C383.684 910.248 405.836 873.756 414.071 864.109C422.306 854.461 441.033 848.935 455.371 841.628C469.709 834.321 471.987 839.777 472.507 841.457C473.522 844.729 468.36 848.497 463.371 851.57C463.371 851.57 473.08 871.02 472.529 875.308C471.978 879.596 460.615 892.993 454.835 895.534C449.054 898.075 432.636 901.648 432.636 901.648L414.287 927.291Z" fill="#EA9572"/>
<path d="M451.512 859.468L450.412 857.31C450.5 857.267 459.195 852.845 462.716 850.566L464.034 852.602C460.407 854.948 451.871 859.285 451.512 859.468Z" fill="#DB7D50"/>
<path d="M456.031 869.228L454.932 867.07C455.02 867.024 463.715 862.606 467.235 860.326L468.554 862.362C464.927 864.705 456.39 869.045 456.031 869.228Z" fill="#DB7D50"/>
<path d="M459.761 878.458L458.662 876.3C458.75 876.254 467.445 871.833 470.966 869.556L472.284 871.589C468.654 873.936 460.121 878.275 459.761 878.458Z" fill="#DB7D50"/>
<path d="M385.662 901.803C385.927 899.867 392.511 890.272 392.511 890.272C392.511 890.272 420.697 904.174 432.532 916.231L423.901 928.678L385.662 901.803Z" fill="#FFEADF"/>
<path d="M429.344 924.305C410.828 910.218 384.646 895.412 384.646 895.412C384.646 895.412 320.429 964.763 310.194 1002.05C308.366 1008.69 307.733 1016.8 308.467 1024.91H390.512C413.289 985.524 429.344 924.305 429.344 924.305Z" fill="#13375D"/>
<path d="M609.978 913.043L618.222 842.28L615.816 842L607.562 912.939C607.593 913.953 609.198 967.436 611.071 1024.92H613.507C611.619 967.442 610.014 913.962 609.978 913.043Z" fill="#4B698D"/>
<path d="M430.508 924.637C430.574 924.403 430.568 924.155 430.491 923.925C430.415 923.694 430.271 923.492 430.078 923.344C411.708 909.366 385.508 894.505 385.243 894.356C384.993 894.222 384.705 894.179 384.427 894.235C384.149 894.29 383.899 894.441 383.72 894.661C383.416 895.05 351.716 933.971 328.293 970.962L330.343 972.259C351.822 938.314 380.312 902.722 384.942 896.989C389.613 899.673 411.675 912.51 427.947 924.78C425.796 932.035 409.101 986.924 385.752 1024.92H388.663C395.649 1013.38 402.647 999.347 409.656 982.822C417.641 963.813 424.602 944.39 430.508 924.637Z" fill="#4B698D"/>
<path d="M616.562 1011.13L615.457 1008.97C626.779 1003.15 636.628 994.835 644.261 984.651L646.204 986.106C638.345 996.58 628.21 1005.14 616.562 1011.13Z" fill="#4B698D"/>
<path d="M432.706 644.599L438.227 630.423V608.155C438.227 600.547 448.932 588.864 461.111 588.864L446.91 576.618L426.316 603.286L432.706 644.599Z" fill="#231F20"/>
<path d="M545.284 644.599L539.766 630.423V608.155C539.766 600.547 529.058 588.864 516.879 588.864L531.083 576.618L551.673 603.31L545.284 644.599Z" fill="#231F20"/>
<path d="M546.311 644.599C546.311 644.599 536.45 696.176 527.033 704.074C517.616 711.971 503.068 718.606 488.749 718.606C474.429 718.606 459.881 711.971 450.464 704.074C441.047 696.176 431.186 644.599 431.186 644.599C431.186 644.599 430.33 691.45 448.189 714.814C458.617 728.457 477.73 732.191 488.749 732.191C499.767 732.191 518.877 728.457 529.308 714.814C547.167 691.45 546.311 644.599 546.311 644.599Z" fill="#231F20"/>
<path d="M514.51 686.064C508.629 681.955 489.071 681.955 489.071 681.955C489.071 681.955 469.517 681.955 463.636 686.064C457.755 690.172 458.724 713.255 458.724 713.255C458.724 713.255 463.292 694.935 467.08 691.447C470.869 687.959 482.719 688.404 489.071 688.404C495.424 688.404 507.274 687.972 511.066 691.447C514.857 694.923 519.423 713.255 519.423 713.255C519.423 713.255 520.394 690.175 514.51 686.064Z" fill="#231F20"/>
<path d="M479.35 701.94C479.35 701.94 486.701 705.732 498.795 701.94C498.795 701.94 495.509 713.867 488.261 713.234C481.012 712.601 479.35 701.94 479.35 701.94Z" fill="#674F3F"/>
<path d="M119.093 757.633C119.093 757.633 110.374 760.183 111.008 765.685C111.641 771.188 119.093 771.772 119.093 771.772V757.633Z" fill="#9688A2"/>
<path d="M180.545 762.895C180.545 762.895 189.411 763.181 190.044 771.766C190.678 780.351 170.127 784.456 170.127 784.456L180.545 762.895Z" fill="#9688A2"/>
<path d="M217.691 675.056C219.749 675.056 221.954 646.857 222.061 643.783C222.387 635.459 221.945 627.045 220.13 618.901C217.389 606.536 211.24 595.142 201.312 587.092C185.095 573.942 163.146 571.334 142.97 570.935C126.717 570.613 109.677 570.853 99.2587 584.463C96.6104 587.938 94.44 591.751 92.8054 595.802C92.6622 596.152 91.3314 600.787 91.1182 600.812C91.1182 600.812 59.1622 607.571 80.7819 675.068L217.691 675.056Z" fill="#231F20"/>
<path d="M178.727 732.949H121.083L118.184 780.683L154.004 847.641L181.627 780.683L178.727 732.949Z" fill="#FFC6AE"/>
<path d="M121.082 732.949L119.094 765.685C119.094 765.685 175.688 761.382 178.727 732.949H121.082Z" fill="#FFA893"/>
<path d="M177.198 606.329C213.415 606.329 207.348 664.87 207.632 676.441C208 691.532 201.093 723.566 182.05 738.423C172.283 746.032 161.17 751.364 150.024 751.537C138.36 751.72 126.659 746.4 116.432 738.423C97.383 723.566 90.4759 691.532 90.8505 676.441C91.1337 664.876 85.0641 606.329 121.287 606.329H177.198Z" fill="#FFC6AE"/>
<path d="M149.238 722.562C138.697 722.562 131.632 715.812 131.525 715.708C131.236 715.361 131.087 714.918 131.105 714.467C131.123 714.015 131.309 713.587 131.625 713.264C131.941 712.941 132.366 712.747 132.817 712.719C133.269 712.691 133.714 712.831 134.068 713.112C134.638 713.666 148.217 726.484 165.741 712.373C166.121 712.125 166.579 712.027 167.026 712.098C167.474 712.168 167.88 712.403 168.164 712.756C168.448 713.109 168.591 713.554 168.565 714.007C168.539 714.459 168.345 714.885 168.022 715.203C161.139 720.736 154.72 722.562 149.238 722.562Z" fill="#FF7463"/>
<path d="M127.002 672.588C127.002 676.024 125.114 678.811 122.781 678.811C120.448 678.811 118.551 676.021 118.551 672.588C118.551 669.155 120.439 666.361 122.772 666.361C125.105 666.361 127.002 669.149 127.002 672.588Z" fill="#472C19"/>
<path d="M179.912 672.588C179.912 676.024 178.021 678.811 175.688 678.811C173.355 678.811 171.467 676.024 171.467 672.588C171.467 669.152 173.358 666.361 175.688 666.361C178.018 666.361 179.912 669.149 179.912 672.588Z" fill="#472C19"/>
<path d="M114.026 657.521C113.605 657.508 113.201 657.351 112.882 657.075C112.563 656.799 112.35 656.421 112.279 656.006C112.207 655.591 112.281 655.163 112.489 654.797C112.696 654.43 113.024 654.146 113.417 653.994C113.771 653.869 122.155 650.987 132.059 653.966C132.31 654.014 132.549 654.113 132.76 654.259C132.971 654.405 133.148 654.593 133.281 654.812C133.414 655.03 133.5 655.274 133.533 655.528C133.565 655.782 133.544 656.04 133.47 656.285C133.397 656.531 133.272 656.757 133.105 656.952C132.938 657.146 132.732 657.302 132.501 657.412C132.269 657.521 132.017 657.58 131.761 657.586C131.505 657.592 131.25 657.544 131.014 657.445C125.668 655.864 119.98 655.855 114.629 657.417C114.436 657.487 114.232 657.522 114.026 657.521Z" fill="#966954"/>
<path d="M184.444 657.521C184.266 657.521 184.09 657.495 183.92 657.445C178.572 655.874 172.885 655.866 167.532 657.42C167.091 657.533 166.623 657.476 166.221 657.262C165.819 657.048 165.512 656.691 165.359 656.262C165.207 655.833 165.22 655.363 165.397 654.943C165.573 654.523 165.901 654.185 166.314 653.994C166.67 653.869 175.061 650.987 184.958 653.966C185.364 654.103 185.708 654.378 185.932 654.743C186.155 655.108 186.243 655.54 186.18 655.963C186.117 656.386 185.908 656.774 185.588 657.059C185.269 657.343 184.859 657.507 184.432 657.521H184.444Z" fill="#966954"/>
<path d="M200.082 712.811C212.386 704.707 227.491 690.464 223.136 674.414C221.199 667.28 212.434 663.604 205.6 666.936L200.082 712.811Z" fill="#FFC6AE"/>
<path d="M98.3881 712.811C86.0844 704.707 70.9789 690.464 75.3339 674.414C77.2709 667.28 86.0387 663.604 92.8697 666.936L98.3881 712.811Z" fill="#FFC6AE"/>
<path d="M150.502 702.418C150.262 702.418 150.024 702.371 149.802 702.278C146.141 700.726 143.153 697.921 141.375 694.366C141.239 694.15 141.149 693.907 141.113 693.654C141.076 693.401 141.093 693.143 141.162 692.897C141.232 692.651 141.352 692.422 141.515 692.226C141.679 692.029 141.882 691.869 142.111 691.756C142.341 691.642 142.591 691.578 142.847 691.568C143.102 691.558 143.357 691.601 143.595 691.695C143.833 691.789 144.048 691.933 144.227 692.115C144.406 692.298 144.545 692.516 144.634 692.756C146.021 695.523 148.35 697.706 151.203 698.913C151.582 699.081 151.892 699.374 152.083 699.742C152.274 700.111 152.333 700.533 152.252 700.94C152.17 701.346 151.952 701.713 151.634 701.98C151.316 702.246 150.917 702.397 150.502 702.406V702.418Z" fill="#FFA893"/>
<path d="M81.9355 660.33L94.0687 681.253C94.0687 681.253 88.4559 651.289 94.8392 627L85.986 640.619L81.9355 660.33Z" fill="#231F20"/>
<path d="M215.915 658.978L203.778 679.901C203.778 679.901 209.108 649.937 202.725 625.648L211.861 639.267L215.915 658.978Z" fill="#231F20"/>
<path d="M34.4969 980.959C34.4969 980.959 34.4969 902.585 25.6651 860.274L154.001 822.367C154.001 822.367 150.84 784.456 146.75 780.674C142.66 776.891 131.422 776.864 119.091 771.757C112.717 769.115 104.731 764.605 119.091 757.624C119.091 757.624 108.791 756.963 101.205 776.55C101.205 776.55 31.9692 795.82 3.8322 815.093C-24.3048 834.367 -46.4332 985.372 -39.4773 1006.21C-36.7364 1014.46 -38.2348 1020.14 -40.6681 1024.89H22.0288L21.8522 1023.27L34.4969 980.959Z" fill="#88BDD8"/>
<path d="M325.064 1002.24C323.562 983.917 318.397 923.462 311.441 880.506C302.61 825.888 300.694 819.217 280.777 807.844C260.859 796.471 200.072 781.94 200.072 781.94C193.354 761.403 180.535 762.904 180.535 762.904C195.696 767.88 181.425 777.539 171.457 780.692C161.489 783.845 159.683 780.692 160.95 793.312C162.217 805.933 153.994 822.376 153.994 822.376C153.994 822.376 223.364 917.783 225.894 966.437C226.756 983.053 232.22 1004.23 239.033 1024.92H326.809C326.312 1017.8 325.725 1010.31 325.064 1002.24Z" fill="#88BDD8"/>
<path d="M246.949 860.277C213.449 834.373 154.004 822.367 154.004 822.367L57.2653 828.688L16.1516 864.793C14.5283 867.417 36.0689 972.815 40.7193 1024.91H259.557C259.609 962.194 266.756 875.591 246.949 860.277Z" fill="#88BDD8"/>
<path d="M112.766 607.604H159.797C159.797 607.604 155.228 594.908 136.283 594.908C117.337 594.908 112.766 607.604 112.766 607.604Z" fill="#231F20"/>
<path d="M112.766 607.604C121.077 596.953 141.866 595.294 150.387 602.559C157.872 608.949 160.029 619.132 166.302 626.43C176.352 638.113 193.657 642.605 207.745 635.913C207.745 635.913 192.783 585.817 147.902 585.817C121.126 585.817 108.152 586.414 112.766 607.604Z" fill="#231F20"/>
<path d="M107.706 609.242C102.133 608.374 96.8515 606.176 92.3086 602.835L93.746 600.888C97.9764 603.994 102.892 606.038 108.078 606.849L107.706 609.242Z" fill="#342F30"/>
<path d="M107.533 598.809L105.654 597.288C112.634 588.705 123.891 583.556 134.909 583.827L134.848 586.262C124.533 585.982 114.051 590.808 107.533 598.809Z" fill="#342F30"/>
<path d="M186.736 627.477C182.314 624.385 177.228 620.575 173.031 615.77C168.606 610.712 165.74 605.118 164.738 599.555L167.126 599.129C168.04 604.245 170.72 609.449 174.855 614.175C178.891 618.786 183.833 622.483 188.137 625.493L186.736 627.477Z" fill="#342F30"/>
<path d="M83.6811 664.652C79.3991 655.363 78.0111 645.002 79.6976 634.916L82.0883 635.323C80.4842 644.924 81.8042 654.784 85.8769 663.626L83.6811 664.652Z" fill="#231F20"/>
<path d="M122.995 637.429C113.35 630.18 108.632 616.938 111.523 605.228L113.877 605.809C111.212 616.603 115.558 628.81 124.454 635.496L122.995 637.429Z" fill="#342F30"/>
<path d="M111.517 608.045C111.517 608.045 108.621 632.407 100.459 642.407C92.2972 652.408 92.4312 663.284 94.3133 678.948C94.3133 678.948 79.8108 640.241 86.4804 626.908C93.1499 613.575 111.517 608.045 111.517 608.045Z" fill="#231F20"/>
<path d="M186.688 608.045C186.688 608.045 189.584 632.407 197.743 642.407C205.901 652.408 205.661 664.222 203.779 679.886C203.779 679.886 218.397 640.241 211.724 626.893C205.052 613.545 186.688 608.045 186.688 608.045Z" fill="#231F20"/>
<path d="M200.171 637.675L199.994 635.262C207.532 634.723 214.134 629.404 216.528 626.178L218.474 627.62C215.703 631.327 208.567 637.067 200.171 637.675Z" fill="#342F30"/>
<path d="M150.26 805.233C115.707 798.267 100.842 778.123 100.227 777.268L102.191 775.85C102.337 776.054 117.175 796.091 150.739 802.856L150.26 805.233Z" fill="#4486A8"/>
<path d="M160.411 805.242L160.049 802.847C188.155 798.559 198.942 781.468 199.049 781.297L201.114 782.563C200.657 783.306 189.623 800.796 160.411 805.242Z" fill="#4486A8"/>
<path d="M26.0177 999.386C1.30076 969.379 -5.53015 928.334 -8.71875 895.914L-6.30677 895.68C-3.15167 927.741 3.58794 968.326 27.8907 997.834L26.0177 999.386Z" fill="#4486A8"/>
<path d="M280.437 1008.69L278.68 1007.02C289.362 995.78 297.998 982.76 304.198 968.549L306.418 969.52C300.106 983.987 291.313 997.242 280.437 1008.69Z" fill="#4486A8"/>
<path d="M29.177 878.135C26.257 862.138 21.0551 846.642 13.7305 832.121L15.8957 831.031C23.3216 845.76 28.5982 861.476 31.5647 877.7L29.177 878.135Z" fill="#4486A8"/>
<path d="M33.8151 894.095L31.041 988.609L33.4641 988.68L36.2382 894.166L33.8151 894.095Z" fill="#4486A8"/>
<path d="M157.116 844.358C159.351 844.358 161.163 842.547 161.163 840.313C161.163 838.079 159.351 836.269 157.116 836.269C154.88 836.269 153.068 838.079 153.068 840.313C153.068 842.547 154.88 844.358 157.116 844.358Z" fill="#4486A8"/>
<path d="M159.978 916.51C161.559 914.931 161.559 912.37 159.978 910.791C158.398 909.211 155.835 909.211 154.254 910.791C152.674 912.37 152.674 914.931 154.255 916.51C155.835 918.09 158.398 918.09 159.978 916.51Z" fill="#4486A8"/>
<path d="M165.1 987.942C165.617 985.769 164.272 983.589 162.097 983.073C159.923 982.557 157.741 983.9 157.224 986.073C156.708 988.246 158.052 990.427 160.227 990.943C162.402 991.459 164.584 990.116 165.1 987.942Z" fill="#4486A8"/>
<path d="M257.979 888.942H200.081C199.758 888.942 199.449 888.814 199.22 888.586C198.992 888.357 198.863 888.048 198.863 887.725V877.91C198.863 877.587 198.992 877.278 199.22 877.049C199.449 876.821 199.758 876.693 200.081 876.693H257.979C258.302 876.693 258.612 876.821 258.84 877.049C259.069 877.278 259.197 877.587 259.197 877.91V887.725C259.197 888.048 259.069 888.357 258.84 888.586C258.612 888.814 258.302 888.942 257.979 888.942ZM201.294 886.508H256.767V879.115H201.294V886.508Z" fill="#4486A8"/>
<path d="M147.067 895.811C147.067 843.725 149.025 835.325 155.092 822.9L152.914 821.837C146.305 835.377 144.643 845.499 144.643 895.811C144.643 916.091 145.943 936.259 147.447 959.611C148.65 978.281 150 999.265 151.044 1024.91H153.481C152.436 999.195 151.084 978.166 149.875 959.455C148.303 935.185 147.067 916.015 147.067 895.811Z" fill="#4486A8"/>
<path d="M260.92 1007.88C262.138 936.704 275.758 856.531 278.977 845.076L276.644 844.422C273.41 855.938 259.717 936.451 258.496 1007.85C258.392 1014.02 258.615 1019.62 259.026 1024.92H261.462C261.039 1019.61 260.814 1014.03 260.92 1007.88Z" fill="#4486A8"/>
</g>
</g>
<defs>
<clipPath id="clip0_365_9606">
<rect width="729" height="1024" fill="white"/>
</clipPath>
<clipPath id="clip1_365_9606">
<rect width="1639" height="484" fill="white" transform="translate(-662 542)"/>
</clipPath>
</defs>
</svg>
