<svg width="48" height="48" viewBox="0 0 48 48" fill="none" xmlns="http://www.w3.org/2000/svg">
<rect width="48" height="48" rx="24" fill="#ECF0FD"/>
<path d="M16.1477 21.3751C16.1462 20.3378 16.35 19.3104 16.7473 18.3522C17.1446 17.3939 17.7276 16.5238 18.4626 15.7918C19.1976 15.0598 20.0702 14.4805 21.0301 14.0872C21.99 13.6939 23.0182 13.4943 24.0555 13.5001C28.3868 13.5329 31.854 17.1314 31.854 21.4736V22.2501C31.854 26.1657 32.6743 28.4407 33.3961 29.6876C33.4728 29.8204 33.5132 29.971 33.5134 30.1244C33.5135 30.2777 33.4733 30.4284 33.3969 30.5613C33.3205 30.6942 33.2105 30.8047 33.0779 30.8817C32.9453 30.9588 32.7948 30.9996 32.6414 31.0001H15.3602C15.2069 30.9996 15.0564 30.9588 14.9238 30.8817C14.7912 30.8047 14.6812 30.6942 14.6047 30.5613C14.5283 30.4284 14.4881 30.2777 14.4883 30.1244C14.4884 29.971 14.5288 29.8204 14.6055 29.6876C15.3274 28.4407 16.1477 26.1657 16.1477 22.2501V21.3751Z" stroke="#111111" stroke-width="1.5" stroke-linecap="round" stroke-linejoin="round"/>
<path d="M20.5 31V31.875C20.5 32.8033 20.8687 33.6935 21.5251 34.3499C22.1815 35.0063 23.0717 35.375 24 35.375C24.9283 35.375 25.8185 35.0063 26.4749 34.3499C27.1313 33.6935 27.5 32.8033 27.5 31.875V31" stroke="#111111" stroke-width="1.5" stroke-linecap="round" stroke-linejoin="round"/>
</svg>
