<svg width="248" height="77" viewBox="0 0 248 77" fill="none" xmlns="http://www.w3.org/2000/svg">
<path d="M68.1045 33.6564C68.1045 37.4669 65.276 41.6212 59.2151 41.6212H45.8223V34.6356H59.2151C59.7934 34.6356 60.2543 34.5784 60.2543 34.1747C60.2543 33.3673 56.7902 31.8071 55.1181 30.8851C50.8466 28.4602 45.825 26.038 45.825 21.2455C45.825 17.3777 48.5963 13.2808 54.7145 13.2808H68.1073V20.2663H54.7145C54.1362 20.2663 53.6752 20.2663 53.6752 20.67C53.6752 21.4774 57.0821 23.0949 58.7541 24.0168C63.0829 26.3817 68.1045 28.8066 68.1045 33.6564Z" fill="#88BDD8"/>
<path d="M71.9648 29.8462V13.2783H79.7578V29.8462C79.7578 33.8285 81.779 34.6387 85.7041 34.6387H92.4578V13.2811H100.251V41.6242H85.7041C77.9111 41.6215 71.9648 37.6964 71.9648 29.8462Z" fill="#88BDD8"/>
<path d="M134.593 27.4213C134.593 35.2715 127.435 41.6215 119.642 41.6215H115.082V34.6359H119.642C123.625 34.6359 126.8 31.4036 126.8 27.4213C126.8 23.4961 123.625 20.2639 119.642 20.2639H112.311V49.7608H104.518V13.2783H119.642C127.435 13.2783 134.593 19.6283 134.593 27.4213Z" fill="#88BDD8"/>
<path d="M167.667 27.4213C167.667 35.2715 160.51 41.6215 152.717 41.6215H148.156V34.6359H152.717C156.699 34.6359 159.874 31.4036 159.874 27.4213C159.874 23.4961 156.699 20.2639 152.717 20.2639H145.385V49.7608H137.592V13.2783H152.717C160.51 13.2783 167.667 19.6283 167.667 27.4213Z" fill="#88BDD8"/>
<path d="M199.56 27.4784C199.56 35.2931 192.956 41.6759 184.866 41.6759C176.721 41.6759 170.117 35.2931 170.117 27.4784C170.117 19.6636 176.721 13.3354 184.866 13.3354C192.956 13.3354 199.56 19.6636 199.56 27.4784ZM192.132 27.4784C192.132 23.3514 189.271 20.111 184.868 20.111C180.411 20.111 177.55 23.3514 177.55 27.4784C177.55 31.6599 180.474 34.7149 184.934 34.7149C189.334 34.7149 192.132 31.6599 192.132 27.4784Z" fill="#88BDD8"/>
<path d="M221.011 13.2783V20.2639H216.669C212.744 20.2639 210.723 21.0713 210.723 24.9964V41.6215H202.93V24.9964C202.93 17.2034 208.876 13.2783 216.669 13.2783H221.011Z" fill="#88BDD8"/>
<path d="M225.326 5.1416H233.119V13.2809H247.608V20.2665H233.119V29.8488C233.119 33.8312 235.14 34.6413 239.065 34.6413H247.608V41.6268H239.065C231.272 41.6268 225.326 37.7017 225.326 29.8515V5.1416Z" fill="#88BDD8"/>
<path d="M10.152 41.5318C5.29948 41.5318 0.0078125 37.9313 0.0078125 30.212V13.2678H8.90272V30.212C8.90272 30.9485 8.97636 31.535 9.49189 31.535C10.5202 31.535 12.506 27.1243 13.6816 24.994C16.7693 19.5551 19.8543 13.1587 25.9561 13.1587C30.8795 13.1587 36.1003 16.6856 36.1003 24.4785V41.6219H27.2053V24.4785C27.2053 23.742 27.2053 23.1556 26.6898 23.1556C25.6588 23.1556 23.6021 27.4926 22.4265 29.6229C19.4124 35.1355 16.3247 41.5318 10.152 41.5318Z" fill="#0D3858"/>
<path d="M14.5221 23.4854C14.2384 23.9928 13.9575 24.4974 13.6738 24.9993C12.4954 27.1296 10.5097 31.5375 9.48409 31.5375C8.97129 31.5375 8.89764 30.951 8.89764 30.2146V13.2812H0V30.2146C0 37.9366 5.2944 41.5317 10.1469 41.5317C15.8941 41.5317 18.9736 35.9809 21.7995 30.7656L14.5221 23.4854Z" fill="#88BDD8"/>
<path d="M4.44844 8.88127C6.90094 8.88127 8.88908 6.89313 8.88908 4.44064C8.88908 1.98814 6.90094 0 4.44844 0C1.99594 0 0.0078125 1.98814 0.0078125 4.44064C0.0078125 6.89313 1.99594 8.88127 4.44844 8.88127Z" fill="#88BDD8"/>
<path d="M25.5852 8.88127C28.0377 8.88127 30.0258 6.89313 30.0258 4.44064C30.0258 1.98814 28.0377 0 25.5852 0C23.1327 0 21.1445 1.98814 21.1445 4.44064C21.1445 6.89313 23.1327 8.88127 25.5852 8.88127Z" fill="#0D3858"/>
<path d="M47.9462 73.8555V72.4155C48.5195 72.4155 48.9728 72.2955 49.3062 72.0555C49.6528 71.8289 49.9795 71.3822 50.2862 70.7155L50.4862 70.2755L46.0462 61.1755H47.6662L50.5462 67.2755L51.2062 68.7955L51.8662 67.2155L54.4862 61.1755H56.0662L51.5062 71.3955C51.2662 71.9422 50.9995 72.3889 50.7062 72.7355C50.4128 73.0955 50.0928 73.3489 49.7462 73.4955C49.4128 73.6422 49.1195 73.7355 48.8662 73.7755C48.6128 73.8289 48.3062 73.8555 47.9462 73.8555ZM56.6266 66.0555C56.6266 64.6555 57.1266 63.4622 58.1266 62.4755C59.1266 61.4755 60.3333 60.9755 61.7466 60.9755C63.16 60.9755 64.3666 61.4755 65.3666 62.4755C66.3666 63.4622 66.8666 64.6555 66.8666 66.0555C66.8666 67.4422 66.3666 68.6355 65.3666 69.6355C64.3666 70.6222 63.16 71.1155 61.7466 71.1155C60.3333 71.1155 59.1266 70.6222 58.1266 69.6355C57.1266 68.6355 56.6266 67.4422 56.6266 66.0555ZM59.2266 63.5155C58.5333 64.2222 58.1866 65.0689 58.1866 66.0555C58.1866 67.0422 58.5333 67.8889 59.2266 68.5955C59.92 69.2889 60.76 69.6355 61.7466 69.6355C62.7333 69.6355 63.5733 69.2889 64.2666 68.5955C64.96 67.8889 65.3066 67.0422 65.3066 66.0555C65.3066 65.0689 64.96 64.2222 64.2666 63.5155C63.5733 62.8089 62.7333 62.4555 61.7466 62.4555C60.76 62.4555 59.92 62.8089 59.2266 63.5155ZM68.8016 67.1955V61.1755H70.3216V66.8755C70.3216 68.7155 71.155 69.6355 72.8216 69.6355C73.6216 69.6355 74.2816 69.3622 74.8016 68.8155C75.3216 68.2689 75.5816 67.5289 75.5816 66.5955V61.1755H77.1016V70.9155H75.5816V69.4155C74.8883 70.5489 73.8416 71.1155 72.4416 71.1155C71.255 71.1155 70.3483 70.7555 69.7216 70.0355C69.1083 69.3022 68.8016 68.3555 68.8016 67.1955ZM79.7438 70.9155V61.1755H81.2638V63.2355C81.5572 62.5689 82.0238 62.0289 82.6638 61.6155C83.3038 61.1889 84.0905 60.9755 85.0238 60.9755V62.6555C83.9305 62.6555 83.0305 62.9755 82.3238 63.6155C81.6172 64.2422 81.2638 65.2422 81.2638 66.6155V70.9155H79.7438ZM94.6988 70.9755L90.3988 61.1755H91.9788L94.6988 67.3755L95.3988 69.3155C95.6122 68.5955 95.8455 67.9555 96.0988 67.3955L98.8188 61.1755H100.399L96.0988 70.9755H94.6988ZM101.814 70.9155V61.1755H103.334V70.9155H101.814ZM101.594 58.5555C101.594 58.2755 101.687 58.0355 101.874 57.8355C102.074 57.6355 102.314 57.5355 102.594 57.5355C102.874 57.5355 103.107 57.6355 103.294 57.8355C103.494 58.0355 103.594 58.2755 103.594 58.5555C103.594 58.8222 103.494 59.0555 103.294 59.2555C103.107 59.4555 102.874 59.5555 102.594 59.5555C102.314 59.5555 102.074 59.4555 101.874 59.2555C101.687 59.0555 101.594 58.8222 101.594 58.5555ZM105.474 69.5955L106.214 68.3755C107.028 69.2155 108.048 69.6355 109.274 69.6355C109.968 69.6355 110.548 69.5022 111.014 69.2355C111.481 68.9555 111.714 68.5955 111.714 68.1555C111.714 67.9289 111.648 67.7289 111.514 67.5555C111.394 67.3822 111.201 67.2355 110.934 67.1155C110.681 66.9955 110.441 66.9022 110.214 66.8355C110.001 66.7689 109.708 66.6889 109.334 66.5955C108.788 66.4622 108.348 66.3422 108.014 66.2355C107.694 66.1155 107.348 65.9489 106.974 65.7355C106.601 65.5222 106.328 65.2555 106.154 64.9355C105.981 64.6022 105.894 64.2089 105.894 63.7555C105.894 62.9289 106.254 62.2622 106.974 61.7555C107.694 61.2355 108.501 60.9755 109.394 60.9755C110.581 60.9755 111.701 61.3355 112.754 62.0555L112.014 63.2355C111.254 62.7155 110.388 62.4555 109.414 62.4555C108.894 62.4555 108.434 62.5822 108.034 62.8355C107.648 63.0755 107.454 63.3755 107.454 63.7355C107.454 63.9489 107.508 64.1355 107.614 64.2955C107.721 64.4555 107.901 64.5955 108.154 64.7155C108.421 64.8222 108.641 64.9022 108.814 64.9555C109.001 64.9955 109.288 65.0622 109.674 65.1555C110.208 65.2755 110.648 65.4022 110.994 65.5355C111.354 65.6555 111.728 65.8289 112.114 66.0555C112.501 66.2689 112.788 66.5489 112.974 66.8955C113.174 67.2422 113.274 67.6489 113.274 68.1155C113.274 69.0889 112.874 69.8355 112.074 70.3555C111.274 70.8622 110.348 71.1155 109.294 71.1155C107.708 71.1155 106.434 70.6089 105.474 69.5955ZM115.408 70.9155V61.1755H116.928V70.9155H115.408ZM115.188 58.5555C115.188 58.2755 115.281 58.0355 115.468 57.8355C115.668 57.6355 115.908 57.5355 116.188 57.5355C116.468 57.5355 116.701 57.6355 116.888 57.8355C117.088 58.0355 117.188 58.2755 117.188 58.5555C117.188 58.8222 117.088 59.0555 116.888 59.2555C116.701 59.4555 116.468 59.5555 116.188 59.5555C115.908 59.5555 115.668 59.4555 115.468 59.2555C115.281 59.0555 115.188 58.8222 115.188 58.5555ZM119.068 66.0555C119.068 64.6555 119.568 63.4622 120.568 62.4755C121.568 61.4755 122.775 60.9755 124.188 60.9755C125.601 60.9755 126.808 61.4755 127.808 62.4755C128.808 63.4622 129.308 64.6555 129.308 66.0555C129.308 67.4422 128.808 68.6355 127.808 69.6355C126.808 70.6222 125.601 71.1155 124.188 71.1155C122.775 71.1155 121.568 70.6222 120.568 69.6355C119.568 68.6355 119.068 67.4422 119.068 66.0555ZM121.668 63.5155C120.975 64.2222 120.628 65.0689 120.628 66.0555C120.628 67.0422 120.975 67.8889 121.668 68.5955C122.361 69.2889 123.201 69.6355 124.188 69.6355C125.175 69.6355 126.015 69.2889 126.708 68.5955C127.401 67.8889 127.748 67.0422 127.748 66.0555C127.748 65.0689 127.401 64.2222 126.708 63.5155C126.015 62.8089 125.175 62.4555 124.188 62.4555C123.201 62.4555 122.361 62.8089 121.668 63.5155ZM131.443 70.9155V61.1755H132.963V62.7355C133.696 61.5622 134.803 60.9755 136.283 60.9755C137.47 60.9755 138.363 61.3289 138.963 62.0355C139.563 62.7289 139.863 63.7089 139.863 64.9755V70.9155H138.343V65.2155C138.343 64.3089 138.15 63.6222 137.763 63.1555C137.39 62.6889 136.763 62.4555 135.883 62.4555C135.083 62.4555 134.396 62.7422 133.823 63.3155C133.25 63.8755 132.963 64.5889 132.963 65.4555V70.9155H131.443ZM142.302 70.7955C142.089 70.5822 141.982 70.3222 141.982 70.0155C141.982 69.7089 142.089 69.4489 142.302 69.2355C142.516 69.0222 142.776 68.9155 143.082 68.9155C143.389 68.9155 143.649 69.0222 143.862 69.2355C144.076 69.4489 144.182 69.7089 144.182 70.0155C144.182 70.3222 144.076 70.5822 143.862 70.7955C143.649 71.0089 143.389 71.1155 143.082 71.1155C142.776 71.1155 142.516 71.0089 142.302 70.7955ZM153.036 70.9755L149.696 61.1755H151.196L153.396 67.6355L153.736 69.0555C153.816 68.5355 153.916 68.0622 154.036 67.6355L155.956 61.1755H157.476L159.416 67.6355L159.716 69.0555C159.796 68.5355 159.909 68.0622 160.056 67.6355L162.236 61.1755H163.736L160.416 70.9755H159.036L157.036 64.4755L156.716 63.0555C156.636 63.6022 156.536 64.0755 156.416 64.4755L154.416 70.9755H153.036ZM165.961 65.4155H172.401C172.307 64.5222 171.954 63.7889 171.341 63.2155C170.741 62.6289 170.027 62.3355 169.201 62.3355C168.387 62.3355 167.674 62.6289 167.061 63.2155C166.447 63.8022 166.081 64.5355 165.961 65.4155ZM164.381 66.0555C164.381 64.6555 164.854 63.4622 165.801 62.4755C166.747 61.4755 167.901 60.9755 169.261 60.9755C170.541 60.9755 171.641 61.4689 172.561 62.4555C173.481 63.4422 173.941 64.6155 173.941 65.9755L173.901 66.6155H165.981C166.101 67.5489 166.494 68.3022 167.161 68.8755C167.827 69.4489 168.614 69.7355 169.521 69.7355C170.694 69.7355 171.694 69.3622 172.521 68.6155L173.241 69.7155C172.134 70.6489 170.894 71.1155 169.521 71.1155C168.094 71.1155 166.881 70.6422 165.881 69.6955C164.881 68.7489 164.381 67.5355 164.381 66.0555ZM180.455 66.0555C180.455 64.6422 180.901 63.4422 181.795 62.4555C182.701 61.4689 183.821 60.9755 185.155 60.9755C185.888 60.9755 186.561 61.1422 187.175 61.4755C187.788 61.8089 188.281 62.2689 188.655 62.8555V57.7555H190.175V70.9155H188.655V69.2555C188.281 69.8422 187.788 70.3022 187.175 70.6355C186.575 70.9555 185.901 71.1155 185.155 71.1155C183.821 71.1155 182.701 70.6222 181.795 69.6355C180.901 68.6489 180.455 67.4555 180.455 66.0555ZM182.975 63.4955C182.335 64.1889 182.015 65.0422 182.015 66.0555C182.015 67.0689 182.335 67.9222 182.975 68.6155C183.615 69.2955 184.408 69.6355 185.355 69.6355C186.288 69.6355 187.068 69.3022 187.695 68.6355C188.335 67.9555 188.655 67.0955 188.655 66.0555C188.655 65.0422 188.335 64.1889 187.695 63.4955C187.068 62.8022 186.288 62.4555 185.355 62.4555C184.408 62.4555 183.615 62.8022 182.975 63.4955ZM193.89 65.4155H200.33C200.237 64.5222 199.884 63.7889 199.27 63.2155C198.67 62.6289 197.957 62.3355 197.13 62.3355C196.317 62.3355 195.604 62.6289 194.99 63.2155C194.377 63.8022 194.01 64.5355 193.89 65.4155ZM192.31 66.0555C192.31 64.6555 192.784 63.4622 193.73 62.4755C194.677 61.4755 195.83 60.9755 197.19 60.9755C198.47 60.9755 199.57 61.4689 200.49 62.4555C201.41 63.4422 201.87 64.6155 201.87 65.9755L201.83 66.6155H193.91C194.03 67.5489 194.424 68.3022 195.09 68.8755C195.757 69.4489 196.544 69.7355 197.45 69.7355C198.624 69.7355 199.624 69.3622 200.45 68.6155L201.17 69.7155C200.064 70.6489 198.824 71.1155 197.45 71.1155C196.024 71.1155 194.81 70.6422 193.81 69.6955C192.81 68.7489 192.31 67.5355 192.31 66.0555ZM204.002 70.9155V57.7555H205.522V70.9155H204.002ZM208.162 70.9155V61.1755H209.682V70.9155H208.162ZM207.942 58.5555C207.942 58.2755 208.035 58.0355 208.222 57.8355C208.422 57.6355 208.662 57.5355 208.942 57.5355C209.222 57.5355 209.455 57.6355 209.642 57.8355C209.842 58.0355 209.942 58.2755 209.942 58.5555C209.942 58.8222 209.842 59.0555 209.642 59.2555C209.455 59.4555 209.222 59.5555 208.942 59.5555C208.662 59.5555 208.422 59.4555 208.222 59.2555C208.035 59.0555 207.942 58.8222 207.942 58.5555ZM215.402 70.9755L211.102 61.1755H212.682L215.402 67.3755L216.102 69.3155C216.315 68.5955 216.549 67.9555 216.802 67.3955L219.522 61.1755H221.102L216.802 70.9755H215.402ZM223.265 65.4155H229.705C229.612 64.5222 229.259 63.7889 228.645 63.2155C228.045 62.6289 227.332 62.3355 226.505 62.3355C225.692 62.3355 224.979 62.6289 224.365 63.2155C223.752 63.8022 223.385 64.5355 223.265 65.4155ZM221.685 66.0555C221.685 64.6555 222.159 63.4622 223.105 62.4755C224.052 61.4755 225.205 60.9755 226.565 60.9755C227.845 60.9755 228.945 61.4689 229.865 62.4555C230.785 63.4422 231.245 64.6155 231.245 65.9755L231.205 66.6155H223.285C223.405 67.5489 223.799 68.3022 224.465 68.8755C225.132 69.4489 225.919 69.7355 226.825 69.7355C227.999 69.7355 228.999 69.3622 229.825 68.6155L230.545 69.7155C229.439 70.6489 228.199 71.1155 226.825 71.1155C225.399 71.1155 224.185 70.6422 223.185 69.6955C222.185 68.7489 221.685 67.5355 221.685 66.0555ZM233.377 70.9155V61.1755H234.897V63.2355C235.19 62.5689 235.657 62.0289 236.297 61.6155C236.937 61.1889 237.723 60.9755 238.657 60.9755V62.6555C237.563 62.6555 236.663 62.9755 235.957 63.6155C235.25 64.2422 234.897 65.2422 234.897 66.6155V70.9155H233.377ZM239.216 70.7955C239.003 70.5822 238.896 70.3222 238.896 70.0155C238.896 69.7089 239.003 69.4489 239.216 69.2355C239.43 69.0222 239.69 68.9155 239.996 68.9155C240.303 68.9155 240.563 69.0222 240.776 69.2355C240.99 69.4489 241.096 69.7089 241.096 70.0155C241.096 70.3222 240.99 70.5822 240.776 70.7955C240.563 71.0089 240.303 71.1155 239.996 71.1155C239.69 71.1155 239.43 71.0089 239.216 70.7955Z" fill="#88BDD8"/>
</svg>
